<?xml version="1.0" encoding="UTF-8" standalone="no"?>
<svg
   viewBox="0 0 14400 3994.2399"
   version="1.1"
   id="svg30"
   width="14400"
   height="3994.24"
   xmlns="http://www.w3.org/2000/svg"
   xmlns:svg="http://www.w3.org/2000/svg">
  <defs
     id="defs30" />
  <!-- SVG created with Arrow, by QuiverAI (https://quiver.ai) -->
  <style
     type="text/css"
     id="style1">.cls-0 {fill:#F5EADA;}
.cls-1 {fill:#F2E7D8;}
.cls-2 {fill:#FFFFFF;}
.cls-3 {fill:#9c1a1f;}
.cls-4 {fill:#7a1e22;}
.cls-5 {fill:#b84a3f;}
.cls-6 {fill:#c86b5e;}
.cls-7 {fill:#5c1a1e;}</style>
  <path
     class="cls-3"
     d="M 108.5,31.4 C 105,29 97.1,26.9 89.4,26.4 c -3.5,-0.5 -8,0.5 -11,-1 -1.8,-0.8 -3.4,-2.8 -3.4,-3.9 0,-2 -1.4,-4 -4.3,-5 -5.2,-1.9 -7,1 -4.5,4.6 1,1.4 3.5,3.5 6.5,3.5 l 2.8,1.8 c -6.1,-0.3 -8.3,0.6 -11.8,1.5 -1.3,0.2 -5.3,0.7 -6,0 -1.8,-1.8 -3.6,-5.8 -6.8,-6.2 -3.7,-0.3 -4.3,2.4 -2,4.9 1.2,1.5 3.6,2.3 5.7,2.5 L 53.9,30 c -2.9,-0.1 -6.5,0.5 -9.3,-0.5 -2.7,-1 -6.2,-3.8 -7.2,-5.5 0.3,-4.4 -1.5,-10.6 -7,-11.4 l -1.8,-1 c -2.6,-1.5 -5.1,1.8 -3.1,6.3 1.4,3.6 3.6,8.2 9.1,9.1 l 1.8,1.5 5,2.5 c -3.8,0 -10.3,0.4 -13.7,-0.6 -2.2,-1.5 -4.8,-2 -7.2,-2 -3.6,0.1 -7.6,1.7 -9.8,5.5 -2,3.2 2.7,3.5 4.9,4.5 3,1 8,1.2 12,-2.5 2.4,-2 10.9,-1.3 15,-1.3 2.3,0.3 5,-0.7 8,-1 l -0.7,1 c -3.3,1.9 -5.5,2.8 -7.5,4.8 -3.3,2 -5,3.5 -6.3,7.7 -0.5,4.5 1.5,5.8 5.3,4.3 4,-1.5 8.1,-7.3 7.1,-12.3 2.5,-3.7 8.6,-7.2 13.4,-7.7 l -0.5,1.5 c -3.3,1 -5,7 -1.5,7.1 1.5,0 4.2,-2.4 4.7,-4.1 1,-3 1.5,-5.5 6.3,-6 l 15.7,-1 -4.6,2.7 c -2.4,1.5 -8,4.4 -9.1,8.4 -0.8,3.6 0.2,6.1 4.7,3.6 3.3,-0.5 6.8,-4 6.3,-9 1.5,-2.2 5.5,-4.1 8,-4.6 5.2,-1 9.6,1.4 14.6,3.4 2,0.7 3.5,-1 2,-2 z"
     id="path6" />
  <path
     class="cls-4"
     d="M 27.1,31.7 C 22.9,29 19.4,27.6 13.9,31.4 l -3.4,3.6 5.1,2 c 5.8,1.6 8.5,-0.1 13,-3.1 z"
     id="path7" />
  <path
     class="cls-4"
     d="M 36.5,24.6 C 36.9,21.5 35.9,14.6 31.6,14 l -4,-1.6 c -2.2,0.5 -2.2,3.6 0,8 0.9,3.1 5.3,4.6 7.5,5.3 z"
     id="path8" />
  <path
     class="cls-4"
     d="M 47.6,39.1 42,40.4 c -1.6,1.2 -4.3,3.1 -5.1,7.2 -0.4,5 3.2,3.8 7.5,0.4 2.2,-1.5 4.5,-6 3.2,-8.9 z"
     id="path9" />
  <path
     class="cls-4"
     d="m 57.1,29 c -2,-1.6 -3.5,-6.9 -7,-6.6 -3.7,0.2 -2,3.7 0.5,5.1 l 4.9,1.5 -0.6,2 -2.8,1.6 -0.5,1.8 c 2.9,-1.9 7.3,-3.5 10.8,-3.8 l 0.5,2.3 c -3.4,0 -5.9,6.1 -3.2,6.7 1.9,0 3.8,-2.2 4.7,-3.7 l 1.2,-4.3 c 1,-2 6.5,-3.1 9.5,-3.2 l 0.3,-1 c -5,-1.3 -11.3,1.7 -13,1.6 z"
     id="path10" />
  <path
     class="cls-4"
     d="m 74.6,22.1 c -0.5,-2.7 -2,-4.6 -4.5,-5.2 -3.2,-0.8 -6,0.2 -3.5,3.7 1.5,2 4,3 6.8,3.3 l 3,3.2 2.5,1 9.1,0.4 1.6,0.6 -4.5,1.9 -4,2.6 -0.5,0.8 2.9,-0.3 0.6,-0.6 c 1.5,-1.4 5.5,-3.5 8.3,-3.9 4.2,-0.6 10.2,1.5 15.2,3.5 l 1,-1 C 105.1,29.4 96.6,27.4 90.1,27 84.9,26.1 79.5,28 75.5,24.1 Z"
     id="path11" />
  <path
     class="cls-4"
     d="m 83.5,34.1 -5.1,-0.2 c -3.8,2.7 -6.3,7.7 -4.4,9.7 1,1 2.6,-0.6 4,-1 3.5,-0.6 5.9,-4 5.5,-8.5 z"
     id="path12" />
  <path
     class="cls-3"
     d="m 36.5,25 6.1,4.4 3,1.7 5.5,0.3 v 1.2 l -6,0.3 -10,-5.9 z"
     id="path13" />
  <path
     class="cls-5"
     d="m 17.4,32.9 1,-1.5 c 2.5,-1.5 5.5,-0.3 8,1.7 l -2.9,1.3 z"
     id="path14" />
  <path
     class="cls-6"
     d="m 18,35.6 1.5,-0.7 3.6,-0.3 -0.6,1.3 c -1.6,0.7 -3,0.6 -4.5,-0.3 z"
     id="path15" />
  <path
     class="cls-5"
     d="m 28.4,18.9 5.2,4.7 c -2.1,-0.2 -4.5,-1.5 -5.2,-3.5 z"
     id="path16" />
  <path
     class="cls-5"
     d="m 30,16.6 3.9,4.9 0.2,-3.4 C 33.6,16.6 32.4,15.6 30,16.6 Z"
     id="path17" />
  <path
     class="cls-5"
     d="M 42.1,46.4 44.4,41.1 46.5,39.6 45,45 Z"
     id="path18" />
  <path
     class="cls-7"
     d="m 27.1,14 2,2.1 -1.5,1.8 z"
     id="path19" />
  <path
     class="cls-7"
     d="m 29.6,17 5,5.4 -1.2,0.2 -4.3,-4.1 z"
     id="path20" />
  <path
     class="cls-7"
     d="m 13.6,34.5 2,-1.9 0.8,-0.5 1,1.3 z"
     id="path21" />
  <path
     class="cls-4"
     d="m 15.4,35.4 7.2,-1.9 -0.2,0.6 -5,2.4 z"
     id="path22" />
  <path
     class="cls-7"
     d="m 38.5,47.4 2.1,-5.4 1.3,-0.4 -2.3,7 z"
     id="path23" />
  <path
     class="cls-4"
     d="M 40.4,48.6 45.4,45 45,46 Z"
     id="path24" />
  <path
     class="cls-7"
     d="m 49.5,23.9 3.6,1.2 2.5,3 -4.2,-1.5 z"
     id="path25" />
  <path
     class="cls-4"
     d="m 59.9,36.9 1.6,-2.4 2,0.5 z"
     id="path26" />
  <path
     class="cls-5"
     d="m 59.651861,37.44561 1.62181,-3.053132 2.32645,0.830859 -1.5058,1.38782 z"
     id="path28-6"
     style="fill:#b84a3f" />
  <path
     class="cls-7"
     d="m 66.5,18 2.6,-0.4 4.3,4 -1.5,1.4 -2.3,-1.4 z"
     id="path27" />
  <path
     class="cls-5"
     d="m 68.5,19.6 1.9,-0.6 2.2,2.5 -1,0.9 z"
     id="path28" />
  <path
     class="cls-7"
     d="m 75.4,41.6 3.7,-5.7 2.5,-1.3 -0.1,1.5 z"
     id="path29" />
  <path
     class="cls-6"
     d="m 76.9,38.6 2.7,-3 1.9,-0.6 0.1,1.1 -5,3.5 z"
     id="path30" />
</svg>
