<svg xmlns="http://www.w3.org/2000/svg" viewBox="0 0 150 150">
<!-- SVG created with Arrow, by QuiverAI (https://quiver.ai) -->
  <style type="text/css">.cls-0 {fill:#FEF9EF;}
.cls-1 {fill:#c1272d;}
.cls-2 {fill:none;stroke:#c1272d;stroke-width:2.3518;stroke-miterlimit:10;}
.cls-3 {fill:none;stroke:#c1272d;stroke-width:1.7638;stroke-linecap:round;stroke-linejoin:round;stroke-miterlimit:10;}
.cls-4 {fill:none;stroke:#c1272d;stroke-width:0.9407;stroke-linecap:round;stroke-linejoin:round;stroke-miterlimit:10;}
.cls-5 {fill:#c1272d;}</style>
  <rect class="cls-0" x=".4" width="148.8" height="150"/>
  <path class="cls-2" d="m73.6 5.2c-36.8 0-67.2 30.6-67.4 69.1-0.3 35.5 27.2 70.5 67.8 70.7 35.8 0.2 70-25.2 70-70.7 0-32.9-25.2-69.1-70.4-69.1z"/>
  <path class="cls-4" d="m9.6 71.5c1.2-33.7 28.2-63.6 64-63.2 22.4 0.2 44.2 9.7 60 35.1"/>
  <path class="cls-4" d="m140.4 82c-1.8 22.2-17.8 57.8-57 59.4-20.4 0.8-43.4-1.6-65.6-33.6"/>
  <path class="cls-3" d="m12.8 70.4 118-25.6"/>
  <path class="cls-3" d="m20 105.8 116.8-24.6"/>
  <path class="cls-4" d="m84 6.2"/>
  <path class="cls-1" d="m32.4 52c-1.4-2.2-5.8-5.4-9.4-6 0.6-2.6 4-8 5.4-6.6l0.6 1.2c-1.4 0.2-2.4 2.2-3 3.6l2.8 1.2 0.6-2.4 1.6-0.6 1 1.2-1.6 2.6 1.6 1.4c1.4-0.8 2.4-2.4 2-4l1.4-0.6c2.2 1.8-0.4 4.4-2.4 9h-0.6z"/>
  <path class="cls-1" d="m38 42.8-7.6-7.6c-0.2-1 3.6-3.8 4.2-4.4 2.6-1.2 8 1.2 8.2 5.2 0.6 3-2.4 4.6-4.4 6.8h-0.4zm-4.6-8 5 4.6c4-1.8 1.6-6-1.6-6.6-1.2 0-2.4 1-3.4 2z"/>
  <path class="cls-1" d="m46.6 35.2-0.4-1.4-3.6-6.4-1.6-0.4-0.4-1 3.6-2.2 0.8 0.8v1.2l3.8 6 1.4 0.2 0.4 1-4 2.2z"/>
  <path class="cls-1" d="m51.6 21.8-1.4 2-1-0.2-1.4-2.4 8-3.4 1.8 1.2-0.2 1.4-3.4 0.2 3 7h1l0.4 1.4-3.4 1.6-0.4-1.2 0.2-0.8-3.2-6.8z"/>
  <path class="cls-1" d="m70.4 20c0.6 4.4-1.4 6.6-4.4 6.8s-4.8-2-5-5.2c-0.6-3.6 1.2-5.8 4.2-6.2 2.6-0.2 4.6 1.2 5.2 4.6zm-7 1c0.4 2.6 1.2 4.2 3 4 2.2-0.2 2-2.6 1.4-5-0.2-2-1.2-2.8-2.8-2.4-1.8 0.2-2 1.6-1.6 3.4z"/>
  <path class="cls-1" d="m73.4 24.8 1-0.8 0.4-7.4-0.6-1.4h4.2c2.2 0 3.6 1.2 3.4 3.2 0 1.4-0.8 2.4-1.8 2.8l1.6 3.8 0.8 1.2-3 0.2-0.8-4.4-2-0.2-0.2 2.6 0.4 1.6h-3.4v-1.2zm4.4-5c1 0.2 1.8-0.4 1.8-1.4s-0.6-1.6-1.6-1.6h-1.2l-0.2 3h1.2z"/>
  <path class="cls-1" d="m84.6 26.4 1.2-0.6 2-7.4-0.4-1.4 0.2-0.4 3.4 1-0.4 1.2-0.6 0.8-1.8 6.8 0.6 1.2-0.6 0.4-3.6-0.8v-0.8z"/>
  <path class="cls-1" d="m99 20 1.8 1-1 9.4 0.4 2-3.4-1-0.2-1 1-0.4 0.2-1.4-3.2-1.6-1 1.2 0.2 1.4-1.2 0.2-1.8-1.2 8.2-8.6zm-3.2 5.6 2.2 1 0.4-3.6-2.6 2.6z"/>
  <path class="cls-1" d="m101.2 33.6c3-1.8 5.4-5.2 7.2-8.2 1 0 2.6 0.6 2.6 1.8l-1.2 0.8-5 6.2 3.6 2.6-1.2 1.8c-1.8-1.6-3.8-3.4-6-4.6v-0.4z"/>
  <path class="cls-1" d="m55.4 121.6-2.2 0.2-0.6-0.6 1-2.4 7.8 3.2-0.8 3-1.2-0.2-0.8-1.8-1-0.2-3.2 6.8 0.2 2.2-4-1.4 0.2-1.2 1.4-0.4 3.2-7.2z"/>
  <path class="cls-1" d="m73.4 124.4h3.6l-1 1.6-3.4 9.4-2.6 0.2-0.8-7.6-2.6 6.6-2.2 0.2-0.6-9.8-1.2-1.6 0.6-0.4 3.6 0.4-0.6 1.6v5.6l2.6-5-0.8-1.6h3.4l-0.2 1.6 0.8 6.4 1.8-6-0.4-1.6z"/>
  <path class="cls-1" d="m84.4 129 0.8-4-0.8-1.4 4.2-0.6-0.2 1.4-1.6 2.2-1.4 4.8 1 3.4-3.6 0.6 0.2-2-0.4-2.2-3.2-4.8-1.8-1.4v-0.6l4.4-0.4-0.2 1.6 2.6 3.4z"/>
  <path class="cls-1" d="m95.4 128.8 2 2.4-3.6 1.6v-1.2l0.6-0.8-2.8-6.4-1.6-1.4 2.8-1.4 6.8 4.2-1.8-4-1.8-1.4 3-1.8 0.4 2.2 3.2 7.8-1 1.6-7.8-4.8 1.6 3.4z"/>
  <path class="cls-1" d="m108 125.4-4.6-7-1.4-0.6 0.2-1.2c2-0.2 4.4-2.6 4.8-3.4h0.4l1.6 0.8-0.4 1.6c-1.2-0.2-2.2 0.8-3.2 1.6l1.4 2.2 1.8-1 0.4-1.2 1.8 0.2v2l-3 1.6 1.8 2c1.8-0.4 2.8-1.8 3-3.2h1.8l0.2 2.2c-2 1.2-4.4 2.4-6.2 4.2l-0.4-0.8z"/>
  <path class="cls-5" d="m35.8 113 2.2 1.4 0.8 1.2-2.2 2.4-1.4-0.2-2-2 0.6-1.4 2-1.4z"/>
  <path class="cls-5" d="m124.4 96.8 2.2 1.4 0.8 1.2-1.6 2.8h-1.6l-1.6-1.8v-1.2l1.8-2.4z"/>
  <path class="cls-1" d="m20.2 77.8 3.4-1.2 9.4 16.8-4.4 0.8-1.2-3.8-4 0.6 0.2 4.6-4.2 0.8 0.8-2.2v-16.4zm3 4.4 0.2 6.6 2.8-0.8-2.8-6.2-0.2 0.4z"/>
  <path class="cls-1" d="m31.6 75.4 7.4-1.6c3-0.2 5.6 1.8 5.6 5.8 0.2 3.8-2.6 5.4-6.6 5.6l1.4 7.2-3.6 0.8-3.4-16.2-0.8-1.6zm5.8 7.4c2.2-0.2 3.6-1.4 3.4-3-0.2-2.2-1.2-3.4-2.8-3l-1.8 0.4 1.2 5.6z"/>
  <path class="cls-1" d="m46.4 72.2 7.2-1.4c3-0.2 5.6 1.6 5.8 5.6 0.4 4-1.8 5.6-6.4 6.2l1.2 7-4 0.8v-2l-3.8-16.2zm5.8 7.6c2.2-0.2 4-1.2 3.6-3-0.2-2.2-1.4-3.4-3-3l-1.8 0.4 1.2 5.6z"/>
  <path class="cls-1" d="m60.8 69 7-1.4c2.6-0.2 5.4 1.8 5.4 5.2 0.2 2-0.2 3.2-1.8 4.2l5 7.6-3.8 1-3.8-7-2 0.2 1.6 7.8-3.8 0.6v-2.2l-3.2-14.2-0.6-1.8zm5.4 7.4c2.4 0 3.6-1.4 3.4-2.8-0.2-2-1.4-3-3-2.6l-1.6 0.2 1.2 5.2z"/>
  <path class="cls-1" d="m76.6 72.8c-0.8-4.4 1.2-8.2 5-8.4 4-0.6 6.2 2 7.2 6.6 1.2 5.4 2.2 11.2-4.4 12.4-3 0.6-6.4-1.8-7-6.4l-0.8-4.2zm3.6 0.8c0.8 3.2 1.6 7 3.8 7 1.6-0.2 2.8-2 2-5l-1.4-6.2c-0.6-2-1.4-2.8-3-2.4-2.2 0.6-2 3.4-1.4 6.6z"/>
  <path class="cls-1" d="m89.4 63 4.2-0.6 5 11.8v-13l4.2-0.8-0.8 2.6-0.2 16.4-3.8 1-7.4-15-1.2-1.4v-1z"/>
  <path class="cls-1" d="m104.8 59.6 10.2-1.8 1 2.8-6.4 0.8 1 5.2 5-1 0.8 3-5.2 1 1.4 5.2c2-0.2 4-0.8 5.4-2l1.4 3-10 2.2-4-17.2-0.6-1.2z"/>
  <path class="cls-1" d="m118.2 56.8 5.8-1.2c4.8-0.8 7.2 1.6 8 8l1.2 2.8-0.2 4.4c-1 2.4-3.2 3.4-5.6 3.6l-4.6 1-3.4-16.4-1.2-0.6v-1.6zm7.4 15.4c1.8-0.4 4.8-1.8 3.8-4.2l-1.6-7.6c-0.8-2.2-2.6-2.2-4.8-1.4l2.6 13.2z"/>
</svg>