<svg xmlns="http://www.w3.org/2000/svg" viewBox="0 0 140 165">
<!-- SVG created with Arrow, by QuiverAI (https://quiver.ai) -->
  <style type="text/css">.cls-0 {fill:#FCF7ED;}
.cls-1 {fill:#D1C6AC;}
.cls-2 {fill:#EDE7D5;}
.cls-3 {fill:#E0D5BD;}
.cls-4 {fill:none;stroke:#C6B89B;stroke-linecap:round;stroke-linejoin:round;stroke-miterlimit:10;}
.cls-5 {fill:none;stroke:#6D6E71;stroke-width:1.7;stroke-linecap:round;stroke-linejoin:round;stroke-miterlimit:10;}
.cls-6 {fill:#939598;}
.cls-7 {fill:#FFFFFF;}
.cls-8 {fill:#8B0304;}
.cls-9 {fill:none;stroke:#000000;stroke-width:0.9699;stroke-linecap:round;stroke-linejoin:round;stroke-miterlimit:10;stroke-dasharray:0.1,2.4248;}</style>
  <rect class="cls-0" width="140" height="165"/>
  <path class="cls-1" d="m128.3 161.6h-114.7v-145.3l114.7 0.2c0.9 0 1.7 0.7 1.7 1.6v141.9c0 0.9-0.8 1.6-1.7 1.6z"/>
  <path class="cls-2" d="m125.9 14h-113.6c-0.8 0-1.7 0.9-1.7 1.6v142.7c0 0.8 0.6 1.4 1.4 1.4h113.9c0.8 0 1.7-0.6 1.7-1.4v-142.7c0-0.8-0.9-1.6-1.7-1.6z"/>
  <path class="cls-3" d="m79.2 35.1-4.5-8.6-2.3-0.5-1.8-4.8-5.3-4.7-1.1-1.9h-51.8l-1.6 1.5-0.2 29.9 0.2 112.6 116-0.2"/>
  <path class="cls-4" d="m11.3 16.4"/>
  <path class="cls-3" d="m77.5 34.8-6.1 2.3 18.5 0.4 1.3 0.5-1-1.3c0.1-0.3-12.6-0.5-12.7-1.9z"/>
  <path class="cls-4" d="m11.3 16.4"/>
  <path class="cls-5" d="m83.9 14c-1.4-4.1-2.2-7.4 1.5-8.6 2.7-1.3 5.1-0.3 6.6 2.3l7.8 19.7 2.7 7.7c1.4 2.8 0.1 6-3.3 6.3-1.7 0.1-4-0.9-5.3-3.4l-7.3-17.8"/>
  <path class="cls-6" d="m86.1 18.1"/>
  <path class="cls-3" d="m103.2 37.2 9.8 0.3 4.8 1.1 0.7 1.1-13.1-1-2.1 0.1-0.1-1.6z"/>
  <path class="cls-1" d="m103.4 37.5 9.7 0.1 4.8 1 0.7 1.3-2.2 0.5-1.3-1.3-11.7-0.3v-1.3z"/>
  <path class="cls-5" d="m86.6 19.2"/>
  <path class="cls-5" d="m86.6 20.8 6.3 17.6c0.8 1.9 3.2 3.5 4.7 3.1 3.9 0.1 6.2-2.1 4.7-6.6"/>
  <path class="cls-7" d="m32.2 56.2 2.5 0.1 1.6 3.3 1.6-3.4h2.3l0.4 5.5 0.4 2.4h-3.9l0.6-1.9v-1.3l-1.3 3h-0.8l-1.2-3 0.1 1.5 0.7 1.7h-3.4l0.7-2.2-0.3-5.7z"/>
  <path class="cls-7" d="m44.7 56.2h1.8l2.2 5.7 1.1 2.2h-4l0.3-1.6h-1.3l0.4 1.6h-3.7l1.3-2.1 1.9-5.8z"/>
  <path class="cls-7" d="m50.5 56.2h4.2l1.7 1.3v2.5l-0.8 0.6 1.5 3.5-2.5-0.1-1.4-2.6 0.2 2.7h-3.1l0.5-2-0.3-4.2v-1.7z"/>
  <path class="cls-7" d="m64.6 59.4 0.2 4.1-1.5 0.2c-0.5 0.4-0.7 0.8-1.7 0.9-1.5 0-3.3-1.3-3.4-4.3 0-2 1.2-4.2 3.2-4.2 1.1 0 2.5 0.1 3.2 0.8l0.3 2-1.9-0.1s-0.3-0.7-0.9-0.6c-0.9 0.1-1.2 1-1.2 2.1s0.3 2.4 1.2 2.3c0.4 0 0.3-0.7 0.3-0.7l-0.7-2.3 2.9-0.2z"/>
  <path class="cls-7" d="m68.6 56.1 1.8 0.1 2.2 5.9 1 2h-3.9l0.3-1.5-1.3-0.1 0.3 1.6h-3.5l1.1-2.1 2-5.9z"/>
  <path class="cls-7" d="m74.1 56.1 3.2 0.1-0.5 1.6v3.3c0.1 0.9 1.8 1.4 1.9-0.2v-3.1l-0.5-1.7h2.8l-0.4 1.9 0.1 4.4-2.3 2-1.7 0.1-2.4-1.7v-5.1l-0.2-1.6z"/>
  <path class="cls-7" d="m82.5 56.1 3 0.1 0.8 1.8 0.9-1.9h1.7l0.1 1.3-1.6 2.2 1.7 3.1-0.1 1.4h-3.4l0.4-1.3-0.5-1.2-0.6 1.2 0.5 1.3h-3.4l2.3-3.8-1.8-3.1v-1.1z"/>
  <path class="cls-7" d="m32.1 70.6 4.4-0.1 1.5 1.2 0.1 1.9-0.5 0.8 0.7 0.8-0.2 2.4-1.4 1.1h-4.7l0.6-2-0.1-4.7-0.4-1.4z"/>
  <path class="cls-7" d="m39.8 70.5 5.8-0.1 0.6 1.1-0.2 2.1-0.9-1-2.2-0.1v0.9l2.2 0.2 0.3 2-2.4 0.1 0.1 0.8h1.9l1.1-0.6-0.1 2.3-0.6 0.5h-5.3l0.5-2.3-0.2-4.7-0.6-1.2z"/>
  <path class="cls-7" d="m49.9 70.5 1.8 0.1 2.4 6 1 1.9-3.9 0.1 0.3-1.6h-1.4l0.5 1.6-3.2-0.1 0.3-1.9 2.2-6.1z"/>
  <path class="cls-7" d="m55.2 70.5h3.8l-0.7 1.8v3.4c0.2 0.8 1.8 0.9 1.9-0.1l-0.1-3.5-0.6-1.6h3l-0.5 1.7-0.1 4.4-1.8 2.1h-2.4l-1.7-1.7-0.1-4.7-0.7-1.8z"/>
  <path class="cls-7" d="m63.6 70.6 2.7 0.1 1.5 3.2 1.7-3.3h2.3l0.4 5.5 0.4 2.4-4 0.1 0.7-1.7-0.1-2-1.3 3h-0.9l-1-2.9-0.1 1.7 0.8 1.8h-3.2l0.8-1.8-0.4-4.7-0.3-1.4z"/>
  <path class="cls-7" d="m76.5 70.4c-2 0-3.3 2.2-3.2 3.8 0 2.2 1.3 4.5 3.3 4.5 2.1 0 3.5-2 3.6-4.1 0-2-1.5-4.3-3.7-4.2zm0.1 6.2c-0.7 0-1-1-1.1-2.1 0-1 0.3-2.1 1.1-2.2 0.9 0 1.2 1.1 1.2 2.1 0 1.2-0.3 2.2-1.2 2.2z"/>
  <path class="cls-7" d="m81.5 70.6 2.6-0.1 2.3 3.2-0.2-3.2h2.5l-0.5 2.1 0.1 5.8-1.6 0.1-2.8-4.3 0.1 2.5 0.9 1.8-3.5 0.1 0.7-2-0.1-4.6-0.5-1.4z"/>
  <path class="cls-7" d="m89.8 70.5 5.8-0.1 0.5 0.5-0.2 2.5-1.4-1.1-0.1 4.3 0.5 2-3.7 0.1 0.9-2.1-0.1-4.3-2.4 1.3 0.2-3.1z"/>
  <path class="cls-8" d="m67.1 135.8-1.4-0.4 2.4-3.8h1.1v3h3.2l0.2 1.2-3.4 0.1v7l1.3 1.7 2.1-0.6 0.5 1-2.9 1.2-1.9-0.3-1.6-1.3v-8.7"/>
  <path d="m33 57.8-0.5-1.4 2 0.1 1.8 4.4 1.7-4.4h1.8l-0.4 1.4 0.3 4.5 0.6 1.2h-2.6l0.6-1.1v-4.3l-2 4.4-0.4 0.1-1.9-4.3-0.2 3.8 0.7 1.4h-1.9l0.7-1.4-0.3-4.4z"/>
  <path d="m45.9 56.4h-0.6l-2.2 5.9-1.1 1.3h2.5l-0.6-1.1 0.3-0.9h2l0.4 1-0.6 1h2.9l-1-1.4-2-5.8zm-1.5 4.3 0.8-2.1 0.7 2.1h-1.5z"/>
  <path d="m55.1 60.6 1.1-1.1v-1.8l-1.3-1.2h-4l0.6 1.1 0.1 4.8-0.7 1.2h2.8l-0.6-1.2v-1.7h0.9l1.5 2.8h1.3l-1.7-2.9zm-0.4-1.5-0.9 0.6h-0.8v-2.2h0.9l0.8 0.6v1z"/>
  <path d="m63 58.3 1.4-0.1-0.6-1.5-2.6-0.3c-1.3 0-2.6 1.5-2.6 3.5 0 2.7 1.9 3.7 3 3.8 1 0 1.7-1 1.7-1l1.2 0.7v-2.2l0.5-1.1h-2.6l0.9 1-0.1 1.1-1 0.8c-1 0-1.9-1.1-2-2.9 0-1.5 0.8-2.9 1.8-2.9s1 1.1 1 1.1z"/>
  <path d="m69.8 56.4h-0.8l-2.1 5.8-0.9 1.2h2.6l-0.8-0.9 0.4-0.9h2l0.4 0.9-0.6 1h2.7l-0.8-1.3-2.1-5.8zm-1.4 4.5 0.8-2.5 0.8 2.5h-1.6z"/>
  <path d="m74.3 56.5 2.6-0.1-0.6 1.4v3.8l1 1.1 1.1 0.1 1-0.9v-4l-0.7-1.4h1.9l-0.6 1.4v4.3l-1.8 1.4h-1.6l-1.9-1.4v-4.4l-0.4-1.3z"/>
  <path d="m82.7 56.5h2.4l0.8 2.4 1-2.3 1.7-0.1-2 3.1 2 4-2.4-0.1 0.4-1-1-1.9-1.2 2 0.7 1h-2.5l2.3-3.5-1.5-2.7-0.7-0.9z"/>
  <path d="m36.8 74.4 0.7-0.8v-1.7l-1.1-0.9h-3.9l0.7 1 0.1 4.7-1 1.2h4.5l1.1-1.2v-1.5l-1.1-0.8zm-2.3-2.7h1l0.8 0.7v1.2l-0.7 0.4h-1.1v-2.3zm1.9 4.7-0.5 0.5h-1.4v-1.9h1.1l0.8 0.6v0.8z"/>
  <path d="m40.1 70.9 5.3-0.1 0.2 1.8-1-0.9-2.1-0.1-0.1 2.3h2.2l0.1 1.2-2.1-0.1-0.1 1.9h2.1l1.2-0.8-0.2 1.6-5.4 0.2 0.8-1.3-0.1-4.6-0.8-1.1z"/>
  <path d="m51.3 70.9-0.8-0.1-2.1 5.8-1 1.3h2.5l-0.7-1 0.3-1h2.2l0.4 1-0.7 1h3l-1-1.3-2.1-5.7zm-1.7 4.2 0.9-2.4 0.9 2.4h-1.8z"/>
  <path d="m55.5 70.9h3.1l-0.9 1.1 0.1 3.9 0.8 0.8h1.5l0.6-0.8-0.1-3.9-0.7-1.1h2.2l-0.7 1.1v4.4l-1.2 1.5h-2.5l-1.3-1.3-0.1-4.6-0.8-1.1z"/>
  <path d="m64.2 70.9 2 0.1 1.8 4.2 1.8-4.3 1.6-0.1-0.5 1.6 0.2 4.2 0.7 1.1-2.9 0.2 0.7-1.3-0.2-3.7-1.5 3.5-0.5 0.6-1.9-4.3-0.1 3.9 1 1.3h-2.5l0.7-1.3-0.2-4.6-0.2-1.1z"/>
  <path d="m76.6 70.8c-1.4 0-3 1.3-3 3.4 0 2.4 1.4 3.7 3 3.7 1.7 0 3.2-1.5 3.2-3.7 0-1.8-1.4-3.6-3.2-3.4zm0 6.2c-1 0-1.8-1.1-1.8-2.8 0-1.3 0.7-2.6 1.8-2.6 1 0 1.7 1.1 1.7 2.6 0.1 1.7-0.5 2.8-1.7 2.8z"/>
  <path d="m81.8 70.9 2-0.1 3 4.3-0.1-3.1-0.7-1.2h2.3l-0.7 1.2 0.1 5.7-0.8 0.2-3.5-5.3 0.1 3.8 0.9 1.5h-2.8l0.8-1.3-0.1-4.6-0.5-1.1z"/>
  <path d="m90.2 70.9 5.6-0.1 0.1 1.8-1.2-1h-0.7l0.1 5 0.6 1.3h-3.2l1.1-1.2-0.1-5.1-1 0.1-1.7 1.2 0.4-2z"/>
  <path class="cls-9" d="m32.5 112.9h73.7"/>
  <path d="m32.2 101.3-0.3-0.4h3.7v1.5l-0.6-0.9-1.4-0.1v1.5h1l0.4 0.7-1.4 0.1v1.4h1.4l0.7-0.7-0.1 1.2h-3.4l0.3-0.7-0.3-3.6z"/>
  <path d="m39.7 101.3h-2.3l0.3 0.6v3.2l-0.3 0.5h3.2l1.1-1v-2.6l-2-0.7zm0.9 3.3-0.5 0.5h-1.2v-3.4h1l0.7 0.9v2z"/>
  <path d="m43.3 101.3 1.8 0.1-0.2 0.6 0.1 3.1 0.2 0.6h-1.9l0.3-0.6-0.1-3.2-0.2-0.6z"/>
  <path d="m46.5 100.9 3.9 0.1 0.1 1.4-0.7-0.8h-0.7v3.5l0.2 0.5h-1.7l0.3-0.5-0.1-3.5h-0.7l-0.9 0.8 0.3-1.5z"/>
  <path d="m53.9 101c-1 0-2.2 1-2.2 2.4 0 1.3 1 2.5 2.2 2.5s2.2-1.2 2.2-2.5c0-1.4-1-2.4-2.2-2.4zm0 4.2c-0.6 0-1.2-0.8-1.2-1.8s0.5-1.9 1.2-1.9c0.6 0 1.2 0.9 1.2 1.9s-0.5 1.8-1.2 1.8z"/>
  <path d="m60.4 103.7 0.8-0.6v-1.1l-1-0.7-3 0.1 0.5 0.6 0.1 2.9-0.6 0.7h2.2l-0.5-0.7v-1.2h0.5l1 1.9h1.1l-1.1-1.9zm-0.3-0.7-0.6 0.4h-0.6v-1.7h0.6l0.6 0.4v0.9z"/>
</svg>