<svg xmlns="http://www.w3.org/2000/svg" viewBox="0 0 180 300"><style>.cls-1{fill:#1d1d1b}</style><path d="M0 0h179.7v300H0z" style="fill:#f0ece1"/><path d="M5.3 12.9c-.8 0-1.6.1-2.3.1v-.7l.7-.3c.5 0 .7-.3.7-1V4.1c0-.7-.1-1.1-.7-1.3L3 2.6v-.3h8.6v2.8H11L10.7 4c-.3-.6-.7-.8-1.8-.8H9 6.4v3.7h2c.6 0 .9-.2 1.1-.8l.2-.6h.3v3.6h-.4l-.2-.6c-.1-.6-.4-.8-1-.8h-2V11c0 1 .3 2 2.5 2 1.3 0 2.1-.4 2.7-1.7l.4-.9h.6l-.3 3.5c-2.2-.9-4.6-1-7-1M22.8 2.8C24.9 3.5 26 5 26 7.6c0 2.4-1.2 4.4-3.2 5.3-.9.4-1.9.9-4.3.9h-1.8.7-.1c-.7 0-1.7 0 0 0-.8 0 .6 0 0 0h-.1.1c-.8 0-1.8 0 0 0-.8 0 .6 0 0 0-.8 0-1.7 0 0 0h-.4.4c-.8 0-1.9 0 0 0h-1.4 1.4c.8 0 1-.3 1-1V4c0-.8-.2-1.1-.8-1.2h-.2v-.2c.7-.1 4.1-.2 5.5.2m-2 9.9c2.2 0 3.5-1.7 3.5-4.6 0-2.4-.9-4.2-2.9-4.8-.6-.1-1.3-.2-1.6-.2h1.3V11c0 1.1.3 1.7 1.5 1.7zm13.4.3v.7h-2.7c-.8 0-1.6 0 0 0-.8 0 .4 0 0 0-.7 0-1.7 0 0 0-.8 0-1.7 0 0 0-.8 0 .6 0 0 0-.7 0-1.7 0 0 0-.8 0 .4 0 0 0-.7 0-1.7 0 0 0-.8 0-1.7 0 0 0-.8 0-1.7 0 0 0-.8 0-1.7 0 0 0-.8 0-1.7 0 0 0h-.1V13l.7-.1c.5 0 2.1-1.2 2.1-1.9V4.1c0-.7-.1-1.1-.6-1.3l-.8-.1.1-.5h2.6c.8 0 1.6 0 0 0 .8 0 1.7 0 0 0 .8 0 1.7 0 0 0 .8 0-.3 0 0 0 .8 0 1.7 0 0 0 .8 0 1.6 0 0 0v.5l-.7.1c-.5.1 1 .6 1 1.3V11c0 .7.6 1.9 1.1 1.9l.8.1v.7h-2.2c-.8 0-1.6 0 0 0-.9 0 .4 0 0 0-.7 0-1.7 0 0 0-.8 0-1.7 0 0 0-.8 0 .6 0 0 0-.7 0-1.7 0 0 0-.8 0 .4 0 0 0-.7 0-1.7 0 0 0-.8 0-1.7 0 0 0-.8 0-1.7 0 0 0-.8 0-1.7 0 0 0-.8 0-1.7 0 0 0h-.1zm13.5-7.6-.3-1.1c-.3-1.1-.8-1.2-2.4-1.2h-.6v8.8c0 .8.2 1 .9 1.1l.7.1v.7h-2.7c-.8 0-1.6 0 0 0-.8 0-1.6 0 0 0-.8 0-1.6 0 0 0-.8 0-1.6 0 0 0-.8 0-1.6 0 0 0-.8 0-1.6 0 0 0-.8 0-1.6 0 0 0-.8 0-1.6 0 0 0-.8 0-1.6 0 0 0v-.7l.7-.1c.6-.1.8-.3.8-1.1V3.1h-.7c-1.5 0-2 .1-2.5 1.2l-.4 1.1h-.5l.2-3.1h9l.2 3.1zM56 2.1c2.7 0 5.9 1.8 5.9 5.8 0 3.9-2.4 6-5.8 6-2.8 0-5.8-1.9-5.8-5.8 0-3.3 2.1-6 5.7-6m.2 11c2.3 0 3.3-2.2 3.3-4.8 0-2.7-1.1-5.2-3.6-5.2-2.1 0-3.3 1.9-3.3 4.6 0 2.9 1.4 5.4 3.6 5.4m18.6-.1v.6l-2.5.1c-.5 0-.9-.4-1.4-1.3l-2-3.6h-1v3c0 .8.2 1.1.8 1.2l.7.1v.7h-2.6c-.8 0-1.6 0 0 0-.8 0-1.6 0 0 0-.8 0-1.6 0 0 0-.8 0-1.6 0 0 0-.8 0-1.6 0 0 0-.8 0-1.6 0 0 0-.8 0-1.6 0 0 0-.8 0-1.6 0 0 0-.8 0-1.6 0 0 0v-.7l.5-.1c.6-.1-.5-.4-.5-1.2V4.2c0-.8 1.1-1.2.5-1.3l-.4-.1v-.2c.8 0 2.2-.1 3.8-.1 2.9 0 2.8 1 2.8 2.6 0 1.5-1 2.5-2.5 2.9l2.5 3.8c.4.7.8 1.1 1.3 1.2m-6.5-5.1c2.1 0 3.2-.7 3.2-2.3 0-1.4-.8-2.2-2.4-2.2h-.9v4.5zM81.2 13v.7h-2.7c-.8 0-1.6 0 0 0-.8 0 .4 0 0 0-.7 0-1.7 0 0 0-.8 0-1.7 0 0 0-.8 0 .6 0 0 0-.7 0-1.7 0 0 0-.8 0 .4 0 0 0-.7 0-1.7 0 0 0-.8 0-1.7 0 0 0-.8 0-1.7 0 0 0-.8 0-1.7 0 0 0-.8 0-1.7 0 0 0h-.1V13l.7-.1c.5 0 .1-1.2.1-1.9V4.1c0-.7.4-1.1-.1-1.3l-.8-.1.1-.5H81c.8 0 1.6 0 0 0 .8 0 1.7 0 0 0 .8 0 1.7 0 0 0 .8 0-.3 0 0 0 .8 0 1.7 0 0 0 .8 0 1.6 0 0 0v.5l-.7.1c-.5.1.5.6.5 1.3V11c0 .7-.4 1.9.1 1.9l.8.1zm12.6-1q.3.75.9.9l-.7.1v.7h-1.4c-.8 0-1.6 0 0 0-.8 0-1.6 0 0 0-.8 0-1.6 0 0 0-.8 0-1.6 0 0 0-.8 0-1.6 0 0 0-.8 0-1.6 0 0 0-.8 0-1.6 0 0 0-.8 0-1.6 0 0 0V13l.7-.1L92 9.8h-5.5l-.8 2.1c-.2.7-.2.9.4 1l.5.1v.7h-1.5c-.8 0-1.6 0 0 0-.8 0-1.6 0 0 0-.8 0-1.6 0 0 0-.8 0-1.6 0 0 0-.8 0-1.6 0 0 0-.8 0-1.6 0 0 0-.8 0-1.6 0 0 0-.8 0-1.6 0 0 0V13l.4-.1c.4-.1.6-.3.9-1.1l3.4-9.3H91l2.8 6.8zm-6.5-3.2H91l-1.8-4.5zm17.4 3.7c.4-.3.8-.9 0-.5zl.3-1.4h.3l-.5 2.7c-2.2-.1-4.6-.1-6.8-.1-.8 0-1.6 0 0 0-.8 0-1.6 0 0 0-.8 0-1.6 0 0 0-.8 0-1.6 0 0 0-.8 0-1.6 0 0 0-.8 0-1.6 0 0 0-.8 0-1.6 0 0 0-.8 0-1.6 0 0 0-.8 0-1.6 0 0 0V13l.6-.1c.6-.1.4-.4.4-1.1V4c0-.7.1-1-.4-1.2l-.6-.1h2.4c.8 0 1.6 0 0 0 .8 0 1.6 0 0 0 .8 0 1.6 0 0 0 .8 0 0 0 0 0l-.6.1c-.6.1.2.5.2 1.2v7c0 1.1 0 2 2.3 2 1.4 0 1.9-.2 2.4-.5m22-.6-.2-7.8-4 9.7h-3.6l-3.8-9.7-.1 7.5c0 .9.1 1.2.7 1.3l.7.1v.7H115c-.8 0-1.6 0 0 0-.8 0-1.6 0 0 0-.8 0-1.6 0 0 0-.8 0-1.6 0 0 0-.8 0-1.6 0 0 0-.8 0-1.6 0 0 0-.8 0-1.6 0 0 0-.8 0-1.6 0 0 0V13l.6-.1c.6-.1.8-.3.8-1.3l.1-7.5c0-.8-.2-1.1-.7-1.3l-.7-.1h3.2l1 2.4L122 11l2.5-6 1-2.3h3.1l-.7.1c-.5.1-.8.4-.7 1.2l.3 7.5c0 1 .2 1.3.8 1.4l-1.6.1v.7h-2.3c-.8 0-1.6 0 0 0-.8 0-1.6 0 0 0-.8 0-1.6 0 0 0-.8 0-1.6 0 0 0-.8 0-1.6 0 0 0-.8 0-1.6 0 0 0-.8 0-1.6 0 0 0-.8 0-1.6 0 0 0-.8 0-1.6 0 0 0V13l.7-.1c.6-.1 1.6-.4 1.6-1m11.4-2.1h-3.7l-.8 2.1c-.2.7-.2.9.4 1l-1.2.1v.7h1.6c.8 0 1.6 0 0 0 .8 0 1.6 0 0 0 .8 0 1.6 0 0 0 .8 0 1.6 0 0 0 .8 0 1.6 0 0 0 .8 0 1.6 0 0 0 .8 0 1.6 0 0 0 .8 0 1.6 0 0 0V13l.5-.1c.5-.1.6-.3.9-1.1l3.4-9.3h-4.4l2.6 6.8 2.8 2.7q.3.75.9.9v.8h-1.5c-.8 0-1.6 0 0 0-.8 0-1.6 0 0 0-.8 0-1.6 0 0 0-.8 0-1.6 0 0 0-.8 0-1.6 0 0 0-.8 0-1.6 0 0 0-.8 0-1.6 0 0 0-.8 0-1.6 0 0 0V13l.7-.1-1.2-3.1zM152 8l2.5 3.8c.4.7.8 1.1 1.3 1.2v.6l-2.5.1c-.5 0-.9-.4-1.4-1.3l-2-3.6h-1.5v3c0 .8.2 1.1.8 1.2l.7.1v.7h-2.6c-.8 0-1.6 0 0 0-.8 0-1.6 0 0 0-.8 0-1.6 0 0 0-.8 0-1.6 0 0 0-.8 0-1.6 0 0 0-.8 0-1.6 0 0 0-.8 0-1.6 0 0 0-.8 0-1.6 0 0 0-.8 0-1.6 0 0 0v-.7l.6-.1c.6-.1.5-.4.5-1.2V4.2c0-.8 0-1.2-.6-1.3l-.4-.1v-.2c.8 0 2.2-.1 3.8-.1 2.9 0 4.5 1 4.5 2.6 0 1.5-2.2 2.5-3.7 2.9m-2.1-4.6h-1.5v4.5h1.4c2.1 0 2.8-.7 2.8-2.3 0-1.4-1.1-2.2-2.7-2.2m15.9 10.3V13l.7-.1-3.2-4.2-4-.6 3.2-3.8c.5-.6.6-1.2.1-1.4l-.6-.1v-.1h1.7c.8 0 1.6 0 0 0 .8 0 1.6 0 0 0 .8 0 1.6 0 0 0 .8 0 1.6 0 0 0 .8 0 1.6 0 0 0 .8 0 1.6 0 0 0 .8 0 1.6 0 0 0 .8 0 1.6 0 0 0l.7.1c.6.2.6.8 0 1.4L160.7 8l4 5c.2.2.4.3.7.3l.4.1zm-5.9 0c-.8 0-1.6 0 0 0-.8 0-1.6 0 0 0-.8 0-1.6 0 0 0-.8 0-1.6 0 0 0-.8 0-1.6 0 0 0-.8 0-1.6 0 0 0-.8 0-1.6 0 0 0-.8 0-1.6 0 0 0V13l.7-.1c.6-.1.8-.3.8-1.1V4.1c0-.7-.2-1.1-.7-1.2l-.8-.2h2.6c.8 0 1.6 0 0 0 .8 0 1.6 0 0 0 .8 0 1.6 0 0 0 .8 0 1.6 0 0 0 .8 0 1.6 0 0 0 .8 0 1.6 0 0 0 .8 0 1.6 0 0 0 .8 0 1.6 0 0 0 .8 0 1.6 0 0 0l-.7.2c-.5.1 1 .5 1 1.2v7.7c0 .8-1.5 1-1 1.1l.8.1v.7zm5.3 0V13l.7-.1 3.1.1.7.1v.7h-2.1zm6-3.2h.7l.5 1.3c.5.9 1.2 1.3 2.3 1.3 1.3 0 2.1-.7 2.1-1.8 0-1-.5-1.6-2.4-2.3-2-.8-5.9-3.1-2.6-6 .6-.6 1.5-.8 2.5-.8 1.1 0 2 .3 2.6.5v2.5h-.6l-.3-.9c-.3-.8-.9-1.3-2-1.3-1 0-1.7.6-1.7 1.5 0 1 .7 1.6 2.3 2.2 2 .7 3.1 1.7 3.1 3.4 0 2.3-1.8 3.8-4.1 3.8-1.1 0-2.3-.3-3-.7l-1.1-2.7zM92.6 258.3c-5 0-12.5 3.3-12.4 10.6.2 7.1 7.2 10.4 11.2 10.4v18.3h2.7v-36.4h3.8v36.4h3.2v-36.4h3.9v-2.9zm30.8-50.1c-4-1-11.4-2.6-21.5-2.8-5.6 0-9.5-.5-13.2-.2-5.3.4-9.4 3-15.2 4.2 0-.8.5-1.9-.9-2.1-1.5-.2-10-.6-10.4-.2-1.6 4.9-1.5 10-1.5 24.4 2.2 0 6.6.2 9-.1 1.8-.4 2.4-1.8 2.7-4 3 1.7 11.5 4.3 17.8 1.9 2.4-.8 3 .2 4.4.7s3.4 1.4 5 1.3c3.8-.4 5.1-1.7 5.1-1.9.6-.7 0 0 .3-.4.9-1-.6-1.8 1.9-4.7.9-.9 2.9-4.7 1.7-8.7l-.5-2.2c4 0 7.3.5 11 .7 2.6.3 5.5 1 6-1.2.5-2.3.8-4-1.7-4.7m-53 3.9c-1 4.8-.5 16.9-.5 16.9l-5.9.2c-2.1-5.3-1.4-15.5-.3-20.1l7.7.3zm19.7 12.8c-1 1.4.3 3-.5 3.3-3.5 1.4-12 .2-17.2-3.3-.3-5 0-11.7.7-13.3 6.8-1.1 9.5-4.2 15.8-5 6.7-.5 5.5.4 7.5 1 2.3 2.5 5.7 1.9 7.7 3.4 1 .6 1.5.6 2.3 1.1.3 1-.5 1.3-2.6-.1-1.2-.8-.9 1.6 1.3 2.1 1 .3 2.3.1 1.5 1.3-1.7 1.1-6.7-1.8-8-2.2-2.5.5-5-1.8-7 .7-4.9 6.7-10.5 6.1-15 5.5.8 2.6 5.8 2.5 7.3 2.2l.2 1.4c1.3 0 5-2.1 4.8-2.5 1.7.4.7 2.5-1.3 4.5zm2.3 3.1c-1.2 0-2.3.5-2-.4.3-2 1-3.9 2.7-3.2v.5c-1.1 1.5.1 2.7-.7 3.1m1-5.1-1.5-.4c-.3-2.5.2-6.1 2.5-7.1l.2 3zm8 6.2c-2 1-6.8-.5-8-1.5-.3-2.2 1.2-2.7 3.7-1.2.8.6-.2.7-1.2 1 1.2 1.3 2.8.7 1.7-.8l4.3 1.3c.5 0 .7 0 .5.5-.3.6-.5.6-1 .7m1.5-2.7c-2 0-5.3-1.8-6.5-2.4 0-2.1 2.3-2.4 3.7-1.4.8.8-.2 1.5-.7 1.9 1.5-.1 1.3-1.5.5-2.4-.5-.5-2-.5-1.8-1 1.3-.7 5.8 2 6.6 2.3l-.3 1.7zm2.5-4.8c-1.5 0-6.5-2-7.5-2.7-.3-1 .2-2.9 1.7-2.4 2 .4 4.5 2.1 7.1.9.7 2.2-.6 4.2-1.3 4.2m17.7-9.1c-2.9 0-4.4-.5-6.2-.4-2.3 0-8-.5-9.3-1l-4.2-1.7-4.5-2.2c5.5-.6 19.8.9 23.7 2.8 2.1.5 1.8 2.5.5 2.5m-22.7 4.9-.5.2c1 .8 2.2.8 2 2l.5-.2c0-.8-1-1.8-2-2M66 225c-1.4-.9-3.1.4-1.6 3.2 1.6.4 4.2-1.3 1.6-3.2m44.1-154-8.5 1.6 6.8-3.6c.7-.5 1.5-1.9 0-2-3-.4-6.8 5.1-9.8 5.9-.7.1-1.5-.3-2-.3 1.8-2.5 9.5-9 9.5-9.5v-3.2h-2.2l-9 11c-2.5-1-.3-5.4-.5-10.8 0-4.5-1.5-6.7-2.3-7-1.7.9-1.9 5.4-1.7 9.5.3 2.8 2.2 7.3-.2 8.3l-7.8-11.3-3-.1.2 3.1 9.5 9.4c-2.2 2.5-5.7-3-8.9-5-1.3-.6-3.8-.9-4.1-.4 1 3.4 8.5 5.8 8.5 6.3l-8.5-1.8c-1 0-2.5 1.8-2.5 2l1.8 1.9c2.2 0 6.2-.9 9-.4l-4 3c-.5.8-4.3-.6-4.3 1.5 0 1.8 5-.1 6.3-1.1 1.7-1.6 5.2-4.4 6.7-3.5 1 1.1-1.7 3.4-3 4.1l-7.5 4.3.5 2.5 3 .2 7.8-9 .8-.2c2.2 1-.3 5.5.2 11.5.2 5 2.2 6 3.2 3 1.5-4.4-1-15 .3-14.3l.7.3 8.3 8.6h3.5v-2.6l-7.5-5c-.8-.5-4.3-2.4-2.8-3.3 2.5-1.5 7.8 5.5 12 5-.7-3.1-7-4.5-7-5l8.5.4 2-2c0-.4-1.5-2-2-2" class="cls-1"/><path d="m89.1 65.5 1 .6c0-3.2-3-8.7-4.2-8.6-.3 2.5 2 7 3.2 8m-3.7 23.6h.5c3.7-2.1 3.7-7.5 3.5-9l-2.8 4.4c-1 1.4-1.2 3.5-1.2 4.6m10.5-8.6c-.3 3.1 1.2 7.1 3.7 8.4 1-2.4-1.7-6.9-3.7-8.4m0-13.9 3.2-4.2c1-1.8 1.5-5.3.3-5.3-3 2-3.5 7.5-3.5 9.5m16 78.6c-7.8.8-14.8 8.4-16.8 16.7l-1.7 7.7-.3-10.5c0-3.5.8-10 3.3-13.5 2.2-3.1 3.7-5 6-6.6-5-5-7.3-9.6-9.8-15.5-2.2 5.1-5 12.6-9.5 15.1 2 1.4 5.3 5 7 8 2.3 4.9 2.3 11.5 2.3 22-1.3-12.7-8.8-23.7-18.5-23.1-6.8 0-12.8 6.5-11.8 11.6l1.5.5c1.5.8 2.5 2 4.5 2s3.8-1.5 3.8-3.2c0-4 4.7-7 11.2-2.9h.5c-4.7-4.4-10.5-6.9-13.5-2-.5.6-1 1.5-1.7 1.6-1 0-1.3-1-1.5-1.5 0-2.1 5.7-5.2 9.7-4.2 7.5 1.7 12.5 10.2 14.5 19.1.5 2 1 8 1.5 8.5l.3 1.5c2.2-1.5 3-6.4 3-7.6 1-1.5 1.7-2.8 3.2-2.8l1 1.4c1 1 3.8 2 3.5 0 .5-2-4-6.5-7.5-1.6v.2c.8-5 3.3-9.7 6.3-13.2l-.3 1.1c4.5-2.5 11.3-4.5 12 2 .5 1.6 1.8 3.6 3.5 3.6 1.3 0 3.3-2 5.5-3.2.3-.3.3 0 .3-.8-.5-5.6-5.8-11-11.5-10.4m-44.5 12.2c-1.8 1.2-3-1-1.3-3.3 2-.1 2.3 2.5 1.3 3.3m23.3-12.9-3.3-5h1v-1.4l.5-3 2.5-5v9.4zm3.7-14.4 2.2 3.8.8 5.1.7.5h.8l-4.3 5-1-4.5v-9.5zm23.2 27.9c1.5-2.1 1.3-8-7-7.6l-4.2.6-2-.4c5.5-4.6 11-5 14.2 1 .8.9.5-.1 1.3.4 1 1.6.2 5.1-2.3 6" class="cls-1"/></svg>