<svg xmlns="http://www.w3.org/2000/svg" viewBox="0 0 150 150"><style>.cls-0{fill:#d4a017}.cls-3,.cls-4{fill:none;stroke:#000;stroke-width:.9505;stroke-linecap:round;stroke-linejoin:round;stroke-miterlimit:10}.cls-4{stroke-width:.8376}.cls-5{fill:#1f1b16}.cls-6{fill:none;stroke:#000;stroke-width:.8167;stroke-linecap:round;stroke-linejoin:round;stroke-miterlimit:10}</style><path d="M148.3 73.4C147.7 38.5 118.1 4.2 80 2.3 58.6 1.2 42.5 7.8 29.6 18.4c-2.8 2.3-5.4 4.8-7.9 7.4-3.4 3.6-6.4 7.6-9.1 11.8-2.8 4.5-5.2 9.2-6.9 14.2-2.6 7.2-3.8 14.7-4 21.6v1.7c.4 33 23.9 64.2 56.4 70.9 4.8 1.1 9.8 1.7 14.9 1.8h3c39.8 0 69.1-26.9 72.1-63 .2-2.4.4-4.9.4-7.8 0-1 0-2.3-.2-3.6"/><path d="M146.4 75.1c0 34.3-28.3 70.7-71.2 70.7C34.3 145.8 4 115.1 4 75.3 4 42.5 32.8 4.2 75.2 4.2c32.7 0 71.2 27.1 71.2 70.9" class="cls-0"/><path d="M139.3 74.7c0 30.7-23.5 63.7-63.9 63.7-35.3 0-64.7-25.2-64.7-63.5 0-29.2 26-63.7 64.5-63.7 28.7-.1 64.1 24.2 64.1 63.5" style="fill:#faf3df"/><path d="M20.3 109.1c2.5-5.2 5.5-11.9 5.3-18.3-.4-11.1-.5-19.8.2-22.9.6-2.3 3-5.5 6-16.1.8-2.6 3.4-3.3 4.7-5.2l3.4-6.7 1.9-1.5 2.4 2.8.4 5.2 4-2.6 4.2-.2 3 2.1.2 3.3 3.8.8 2.4 2.4.2 3.4 3.4.8 1.7 3-.9 13.8 2.2-1.5.2-5.9 1.5-3.2 3.6-1.5 2.5-3.6h1.5l3.7 6.3.6-.2 1.3-3.8 2.5-1.7h2.4l.4-3.8 2.5-2.8 4.1-.8.8-4.1 2.4-2.6 3.8-.2 3.8 2.6.2-2.4 1.7-3.3 1.5-.8 2.6 1.3 4.2 7.1 3.2 3.6 4.5 15.6c1.1 1.9.8 9.8.6 16.6-.2 6.1-.8 8.7.3 12.7.8 3 3.6 8.6 4.9 11.5-3 4.9-8.2 11.1-14.5 16.2-3.2.4-9 1.1-10-.6-2.2-5.8-4.1-13.2-8.8-18.1-1.9-1.9-3.6-3.2-5.3-5.3-5.1-6.6-12.7-19-16.8-23-2.1 1.5-5.1 4.9-6.4 6.8-2.9 4.5-7.8 12.9-13.4 18.3-4.4 4-7.6 12.8-9.5 20.2-.7 3.2-8.7 1.7-10.9 1.3-5.3-3.7-11.3-10.4-14.2-15" style="fill:#9c1a1f"/><path d="M20.2 109.1c2-4 5.4-11.4 5.4-18-.2-11.3-.5-20.6.2-23.4.6-2.1 2.5-4.3 6-16 .8-2.7 3.4-3.2 4.9-5.5 1.6-2.3 2.9-6.8 4.4-7.2 1.3-.4 3.6 1.5 3.4 5.5l-.2 2.8c1.7-1.5 3.4-3.9 6-3.9 2.7-.2 5.5 1.7 5.5 4.5L56 49c2.1-.4 6.6 1.2 6.4 6.6 2.8-.2 5.7 1.9 5.3 6.4-.6 3.6-1.7 8-1.7 11.4l3-2.1c-.4-3.8-.2-10 4.9-10l.6-.2" class="cls-3"/><path d="M73.9 61.3c.4 2.3 4.7 1.1 4.4-3.2l3.5 6.4c-.5-3.4 2.9-7.2 5.7-6.4h1.1c-.2-5.7 4.4-8.1 7-7.4 0-3 1.2-7.1 5.5-6.9 2.6 0 4 1.9 5.5 3.2 0-3.1.7-6.1 2.8-7.4 2.3-1.5 4.5 4.7 6.8 7.9 1.5 2.3 3.4 3.6 3.8 4.7.9 1.4 2.4 8.7 4.5 15.5 1.1 3.2.6 7 .6 10.4.1 4.1.1 9-.6 14.7-.2 3.8 2.8 10 5.5 15.1" class="cls-3"/><path d="M88.6 58.1c1.9.5 6.3 6.6 8.3 10.2m-1.1-17.6c1.5.4 3.8 4.7 5.9 7.6 4.7 6.2 6.2 10.3 6.2 14.5m-1.5-26.2 5.1 9 .7 9.3-1.1 2.1" class="cls-4"/><path d="M99.6 107.7c1.3-.6 3.4-1.3 4.3.6 1.5 1.7 4.7 10.9 5.9 16.4-1.7.4-4.2.2-4.7-1.3-1.5-4.6-3.4-10.8-6.1-14.6z"/><path d="M107.3 75.6c-.9 3.8-1.5 10.6 0 14.9" class="cls-6"/><path d="M40.9 38.1s1.5-.6 1.5 1.1c-.2 2-1.9 6.1-4.5 5.1zm68.1 2.6c1.5-2.1 3.2-2.1 5.5 2.5l.9 3c-1.5 3.2-5.2-3-6.2-6.3" class="cls-5"/><path d="M38.6 124.1c4.2-3.4 5.9-15.3 9.3-20.2 1.9-3 3.8-4.1 5.3-5.4C59 93.2 67.3 83 71.3 78.8c.9-.9.9-.5.9 0h.4l2.5-1.9-.6.6.2.2c-1.9 1.9-4.2 4.2-5.9 6.6-2.8 4.2-7.7 12.9-13.7 18.9-4.2 3.7-7.6 12.8-9.5 20.2-.5 2-3.4 1.8-7 1.7z"/><path d="M84.9 72.8c1.5 0 3-.4 4.3-1.1" class="cls-3"/><path d="M84.9 66.8c1.3 1.7 3.2 4.3 6 6 1.7 1.1 4.2 6 7.4 7.4" class="cls-3"/><path d="M85.8 72.6c2.8 1.3 5.7 6.4 7.2 7.6" class="cls-6"/><path d="m91.7 78.8-5.9 4c-.4.4.2.9.6.7l7.2-4.3c.5-.6-.6-1.1-1-.6z"/><path d="M91.5 79.8c.2-1.3 6.8 5.3 11.9 1.5-1.7 4.3-4.6 4.3-9.1 1.7-2.8-1.5-3.2-2.5-2.8-3.2"/><path d="m110.2 56 1.7 9.1-1.2 1.7c-.5.5 0 1.1.4.7 1.5-1.5 2.6-3.4 2.3-5.3l-1-5.6z" class="cls-5"/><path d="M111.1 69.4c.6-3 .6-5.8 0-8.5l1.7-2.8h1.5c.6 0 .8-.8.2-1.1l-3.6.3c.4 3.8 1.3 8.1-.2 11.9-.2 1 .4 1 .4.2m-13.3 4.9c-2 1.7-.3 6.8 2.7 6.6 3.2 0 2.5-5.1.4-6.4-1.1-.7-2.3-.9-3.1-.2m5-4.5c-1.3 2.8 1.1 5.6 2.8 6.4 3.6.2 3.4-2.3 2.3-5.5-.8-1.7-3.8-2.8-5.1-.9m1.5-10.6c0 1.9 1.5 5.9 3 5.3 1.9-.4 2.1-2.8 1.7-5.3-.4-2.2-4.5-3.8-4.7 0"/><path d="M71.3 68.1c2.8 0 6.6-1.3 8.5-5.1l.5-1.3" class="cls-3"/><path d="M73.7 61.3c.8-1.7 1.7-5.1 4-4.7 1.3 0 2.3 3 2.3 3l-1 .4c-.2-.6-.4-.8-.4-.8-.3 1.9-1.5 3.8-4.1 3.8z" class="cls-5"/><path d="M101.9 106.4c2.4.5 6.4-1.3 7.5-3m5.8-4.4c2.1 0 4.4-.7 5.9-2.6" class="cls-6"/><path d="m44.1 47.5-7.2 10.8c-1.5 2.8-5.1 8.8-5.6 11.5 2.6-3.8 4.3-8.9 8.6-14 .4-.4.4-1.3 0-1.3m9.5 6.4c1.1 0 1.9-1.5 3-3.4l3.6-7m2.3 16.3c0-1.2.3-2.1 1.1-3.8l3-7" class="cls-4"/><path d="m33 123.2 5.6.9-.3 1.1-3.6-.5z" class="cls-5"/><path d="M110.5 124.9c1.7 0 4.4-.2 5.1-.4l1.3-.9-6.2.7z" class="cls-6"/><path d="M60.9 111.1h-2.8l4.7 1.9 1.3 5.3 1.5-5.5 4.5-1.7-4.5-1.9-1.3-6.2-1.5 6.2zm14.5-12.8-1.9.3 3.3 1.2.7 4.1 1.3-4.5 3-.9-3.2-1.2-.9-3.7-.9 3.9zM14.9 83.4l-1.9.3 3.2 1 .7 4.1 1.2-4.3 3.2-1.1-3.2-1-1.1-3.9-1 3.9zm37.7-53.6-2.1.4 5.3 2.2 1.3 5.9 1.5-6.4 5.3-1.5-4.9-1.6-1.7-6.9-1.5 6.4zM89 33.4l-1.3.4 3.4 1.3.9 3.7 1.2-3.7 3-1.1-3-1.4-1-3.4-1.1 3.6zm39.3 30.2-1.3.4 4.5 2 1.1 5.3 1.5-5.5 3.8-1.5-3.8-1.1-1.3-5.9-1.3 5.5z" class="cls-0"/><path d="m93.9 71.3 1.9-1.7m3.8-3.4 1.9-1.1m.2-11.5 1.9-1m-24 26 2.2-3.3" class="cls-6"/><path d="m109.2 102.8-.2.6.8-.4z"/><path d="m74.7 38.4.2.2.2-.2c3.5-3.9 6.7-1.4 6.7 1.4 0 4.1-7.1 9.6-7.1 9.6s-7.2-4.9-7.2-9.5c.2-3.1 3.8-5.2 7.2-1.5z" style="fill:#d4a017;stroke:#1f1b16;stroke-width:1.0632;stroke-miterlimit:10"/></svg>