<svg xmlns="http://www.w3.org/2000/svg" viewBox="0 0 160 160">
<!-- SVG created with Arrow, by QuiverAI (https://quiver.ai) -->
  <style type="text/css">.cls-0 {fill:#c1272d;}
.cls-1 {fill:#7a1e22;}
.cls-2 {fill:none;stroke:#1f1b16;stroke-width:1.0731;stroke-linecap:round;stroke-linejoin:round;stroke-miterlimit:10;}
.cls-3 {fill:none;stroke:#1f1b16;stroke-width:0.7309;stroke-linecap:round;stroke-linejoin:round;stroke-miterlimit:10;}
.cls-4 {fill:#9c1a1f;}
.cls-5 {fill:#d65157;}
.cls-6 {fill:none;stroke:#1f1b16;stroke-width:0.6091;stroke-linecap:round;stroke-linejoin:round;stroke-miterlimit:10;}
.cls-7 {fill:#1f1b16;}
.cls-8 {fill:none;stroke:#1f1b16;stroke-width:0.5163;stroke-linecap:round;stroke-linejoin:round;stroke-miterlimit:10;}
.cls-9 {fill:#7a1e22;}
.cls-10 {fill:none;stroke:#1f1b16;stroke-width:0.9618;stroke-linecap:round;stroke-linejoin:round;stroke-miterlimit:10;}
.cls-11 {fill:none;stroke:#1f1b16;stroke-width:0.6412;stroke-linecap:round;stroke-linejoin:round;stroke-miterlimit:10;}
.cls-12 {fill:none;stroke:#1f1b16;stroke-width:0.7505;stroke-linecap:round;stroke-linejoin:round;stroke-miterlimit:10;}
.cls-13 {fill:none;stroke:#1f1b16;stroke-width:0.6588;stroke-linecap:round;stroke-linejoin:round;stroke-miterlimit:10;}
.cls-14 {fill:none;stroke:#1f1b16;stroke-width:0.8072;stroke-linecap:round;stroke-linejoin:round;stroke-miterlimit:10;}</style>
  <path d="m147.4 67.8c-0.1-3.7-1.4-6.8-2.4-10.2-1.3-4.3-2.4-8.7-3.5-13.6-0.7-2.8-4.5-5-7.7-9.7-1.4-2-7.9-13.3-8.9-13.2-0.5 0 0.9 4.2 0.9 4.2-1.8 0.6-2.8 3.8-2.8 8.4-1.7-1.4-4.1-3.5-7.2-3.4-5.3 0-7.5 3.7-7.4 8.8-2.7-0.8-9.8 0.4-9.8 8.6-3.5-0.9-5 0.8-6.7 2.3-2.9 2.6-2 6.7-1.5 10.8-1-1.7-2-3.6-4.4-4.3 1.1-1.5 1.4-3.7 0.6-5.9 0.5-0.5 1.6-2 1.4-2-4.3 0-8.4 2.7-9.8 2.9s-4.1 1.9-4.3 2c-0.1-2-0.2-5.9-5.3-7.7-0.7-0.3-3.5-0.4-3.8-0.3 0.5-5.3-2.1-7.8-5.9-8.9-2-0.6-4.6 0.5-5.1 0.5 0.4-3.2-0.3-6.2-2.9-7.3-1.7-0.8-4.1-2.5-9.4 0.2-0.6 0.3-1.6 0.9-1.6 0.9 0.2-2.8-1-7.5-5.4-7.5-1.6 0-1.7 0.7-6.6 7.1-1.3 1.8-4.7 4.4-7.8 6.2-3.3 1.9-3.4 5.5-4.7 8.8-3.6 10.3-6.4 13.6-6.5 18.3 0 4.5 1.2 11.6 1.6 18.5 0.5 7.7 1.9 10.3 2.1 11.5 0.5 4.3-2 10.1-3.9 14.3-2.2 5-6.5 15.2-6.7 15.3-0.8 1 5.1 8.5 14.6 11.8 6.8 2.4 18.5 4.3 22.9 2.8 0.4-0.1 4-12.1 6-16.5 2-4.3 4.5-8.5 6.7-10 4.4-3.2 8.3-6.9 11.8-11.1 2.9-3.7 5.4-8.8 7.3-11.7 1.3-1.9 3.6-4.6 5.3-8.9l3.8-4.7c4.7 3.5 15.7 19.9 23.6 30.3 2.5 3.5 5.5 5.2 7.5 7.4 4.9 5.5 9.5 17.6 10.9 24.3 0.6 1.6 3.5 2 8.9 1.6 7.1-0.4 13.4-2 19.5-6.3 3.4-2.3 7.1-5.9 7.2-8.7 0.1-0.9-7.4-12.6-10.3-22.8-0.9-2.8-0.4-5.5-0.3-8.1 0.6-6.2 0.4-13.7 0.4-15.7l-0.4-9.3z" fill="#c1272d"/>
  <path class="cls-1" d="m12.1 101.3c1.1-2.7 1-7.1 1-7.1 1.3 1.9 3.8 7.5 15.2 9.5 0 0.4-5.3 0.9-11.9-2-1.3-0.7-3.3-0.4-4.3-0.4z"/>
  <path class="cls-1" d="m34.2 107c-0.4 1.7 0.9 3.1 1.6 3.6 1.8 2.7 5.5 6.1 5.5 6.4-2.9 7.1-5.4 12.4-8.1 17-0.8 1.4-2.1 3.9-2.1 4.7l8-0.3 8.1-21.4 2.5-3.9s-4.2 0.8-7.8-1c-3.3-1.3-7.7-5.1-7.7-5.1z"/>
  <path class="cls-1" d="m33.1 66.5c-0.5 4.1 1.5 8.5 4.8 10.2 1.8 2.4 1 12 0.3 14.4 3.7-3 4.8-9.5 4.7-11.7 1.6 3 4.7 5.5 8.9 4.8l0.7-0.1 2.5 7.5 0.1-0.1-1.9-7.6c2.2-0.6 4.9-2.4 5.8-3.7 2.9 0.9 6 2 6.8 2.8 1.3 1.4 2.6 3.5 2.8 3.2 1.1-1.6-7-8.6-7.1-8.6 2.9-2.7 5.9-8.1 6.4-8 0.8 0.4 3.8 0.8 4 0.4-0.8 2.4 1.8 6.5 1.7 8.3 0 1.2-3.7 7.8-5.4 9.6-2.1 2.7-5.6 8.8-12 15.4-2.1 2.1-5.6 4.6-6.6 5.3-1 1.8-6.7 3.5-11.7 1 3.2 3 8.2 4.4 11.8 3.5l2.7-1.8c4.5-3.4 10.7-8.4 14.3-14.2l5.2-8.5c1-1 3.7-5.2 4.6-7.8l6.4-6.9s-0.3 2.7 0.2 3.5c-0.2-2.5 2-6.1 5-9l-0.4-1c-2.3 2.2-6.6 4.7-10.1 4.3-2.7-0.4-3.4-4.6-3.9-5.6l-2.6 0.4-0.3 0.2c-1.1 0.7-2.7 1.4-4.4 0.9-1.7 1.8-6.8 7.6-8.2 9.4-1.3 1.7-4.3 4.6-7.3 4.1-5-0.2-6.7-4-5.4-8l-1.4 0.6c-4 1.9-9.5-1.3-8.7-7.1l2.2-5c-1.8 0.3-5.7 0.5-7.7-2.6-1.2-1.9 0-7.1 0.7-9.1l-2.7 6.6-5.3 2.5c-1 0 2.5 0 2.6 0.6 0.4 1.5-5.3 4.5-5.3 4.5l4.8-0.7c2-0.3 2.2-1.3 3.2-1.3 1.2 0 5 3.4 5.2 4.4z"/>
  <path class="cls-1" d="m23.7 45.1c1 1.5 3.4 2.3 3.4 2.5 0.3 4.6-1.6 9.5-6 10.5 2.5 0.5 6-1.4 6-1.4l3.4-10.1c-1.4 0.3-4.1-0.2-6.8-1.5z"/>
  <path class="cls-1" d="m27.5 31.5c0.6 1.6 1.7 1.8 2.9 1.1s3.7-4.4 3.8-5.2c0.2-0.8-0.3-3.8-0.3-3.8l3.5 0.6c2.2 1.9 1.5 8.8-1.3 13.4-1.5 2.6-4.5 6.8-8.2 7.3l-3.2 0.2c1.7 1.3 4.4 1.8 5.8 1.5l4.9-4.2c3.7-4.2 5-7 5-11-0.7 0.3-0.5-0.3-0.5-0.3s0.2 3.6-2.8 8l3.6-7.6c0.4 4.4-1.5 7.9-5.3 11.2l-3.8 7.2s5.1-7.3 6.5-10l1.1-8.8s-0.2 1.5-0.2 1.3c0.1-0.2 1.4-1 1.4-1 3-2.8 6.5-3.3 9.7-2.2l2.3 1.3s1.5 1.9 1.2 6.1c-2.2 0.5-3.5 3.4-4.9 5.6-3.8 6.4-7.3 12.7-10.6 17.7l-1.2 1.7 4-5.1 5.7-7.5 7.3-11.4-0.2-0.5h-0.3l0.5 0.5h-0.3l-0.2-0.5 0.5 0.5-0.5-0.5 0.5 0.5-0.5-0.5 0.5 0.5-0.5-0.5 0.3 0.8 0.4-0.3-0.7-0.5 0.7 0.5s-0.5 2.3-1.5 2.8l-3 4.7-2.7 4.9-5 6.5 7.3-8.8 5-9.8c2.9-1.5 8.4-1.8 10.2 2.5 0.7 1.7 0.3 5.7 0.3 5.7-4.3 2.8-9.7 11.3-14.1 18.1l-5.2 6.9-0.5 1.8 4-3.5 8.3-9.8c2.4-3 7.4-12.9 7.4-12.9 2.1-1.3 4.8-1.6 7.5 0.4 2.1 1.6 1.8 6.5 1.8 6.5-3 0.6-4.5 4.8-8.3 10.5-1.7 2.6-9.1 10.8-12 13.8l-2.2 3h2.2l4.3-3.3 8-9.9 4-4.8 1.7-3.3 0.3 6.8 0.5-0.3 1-0.2c-0.5-2.5-1-7.8 0.5-10.9l3.7-2.8-3.2 1.4-0.5-3-7.3-5.2h-1.7l-0.3-4.5-3.5-3.3-3.5-1.1-3.9 0.4v-4l-1.3-2.4-4.7-2.1-3.6 0.2-4.1 2.3-0.3 0.2c0.2-1.2-0.5-6.1-3.6-7.4l-2.5-0.3-2 1.2-4.1 6.9z"/>
  <path class="cls-1" d="m126.4 25.4c-2.5 3.8-1.5 11.7 0.1 14.3 2.7 4.9 4.9 6.9 6.6 7.3-0.4 0.6-3 0.6-3 0.6 0.3 3 0.8 9 0 11l-2.5 2.4-1.5-1.4 2.9-7-4.1-11-1.5-5.5-0.4-4.7 1.5-4.7 1.9-1.3z"/>
  <path class="cls-1" d="m109 39.4c2.9 1 6.4 8.5 9.6 13.2 2.4 3.5 6.3 6.5 6.5 17.3l0.7 2.2 6.6-10.6c1.3-2.1 0.7-13.9 0.7-13.9l-3-0.2 1.3 10.2s-2 0.8-3.5-5.4l-3.2-10.6-1.6-7-5.5-4.1-4-0.1-3.7 1.7-1.5 4 0.6 3.3z"/>
  <path class="cls-1" d="m93.9 60 1.5 8.4c4 2.2 7.7 9.3 8.5 9.5l-1.3 1.6s6.3 4.6 10.3 4.9c3.5 0.3 4.1-0.5 5.5-2.8l0.2-1.7 1.1-4.5c0.7 0.2 2-0.2 2 0-1.6 6.1 1.4 16.8 1.9 17s-2-10 1.3-17.4l-2.8-2.1c-1.5 0.7-5.5-1.8-6.7-3.3l-6.8-9-8.2-10.6-2.5-2.1-3.8-0.2-3 2.3-1.2 4.1 0.7 6.5 3.3-0.6z"/>
  <path class="cls-1" d="m114.1 115.2c3.3 5.2 8.8 18.2 8.9 21.3 0.4 1.2 4.6 1.2 4.6 1.2-1.1-6.1-5.7-17.3-7.9-21.2-1.1-1.9-3.1-1.9-5.6-1.3z"/>
  <path class="cls-4" d="m35.5 50.9c-1.1 0.1-4.1 3.6-4.1 5.2 0 2 4 4.3 6 3.8 1.7-1.8 2.3-5.3 2.1-6.3-0.4-1.4-1.6-2.7-4-2.7z"/>
  <path class="cls-4" d="m42.2 63.6c-1.8-0.2-5.6 3.5-5.3 5 0.3 2.3 3.6 4.8 6.2 3.8 1-0.9 2.5-4.3 2.5-5.8-0.1-1-1.2-2.9-3.4-3z"/>
  <path class="cls-4" d="m51.6 70.9c-1.7-0.3-5.1 3.5-5.2 4.1-0.3 2.6 3 4.1 5.7 4.1 1-0.5 3-4.1 2.8-5.2 0-1.7-1.3-2.8-3.3-3z"/>
  <path class="cls-5" d="m29.1 30.6c-1 0-1.6 1.3-1 1.6 1 1.4 1.6-0.5 1-1.6z"/>
  <path class="cls-5" d="m35.6 51.1c-0.4 1.3 1.8 3.1 3.8 3 0.2-2-2.3-3.5-3.8-3z"/>
  <path class="cls-5" d="m41.9 63.9c0 1.5 2 3.2 3.6 2.8 0.1-1.6-1.6-3.3-3.6-2.8z"/>
  <path class="cls-5" d="m51.1 71.1c-0.2 1.5 2 3.1 3.5 2.8 0.3-1.7-1.7-3.5-3.5-2.8z"/>
  <path class="cls-4" d="m79.9 63.7c-1.5 0.2-3.8 1.9-3.4 2.8s3.2 3.4 3.5 3.5c0.5 0 2.6-2.3 2.6-3.5 0-1.5-0.7-3.1-2.7-2.8z"/>
  <path class="cls-5" d="m80.4 63.9c-0.3 1.2 1 2.7 2 2.2 0.3-1.2-0.8-2.7-2-2.2z"/>
  <path class="cls-6" d="m40.7 76.5c0.7 4.1-0.3 10.9-2.3 14.6"/>
  <path class="cls-8" d="m34.5 107.2c5.1 3.9 8.9 6.5 14.6 6.1"/>
  <path class="cls-3" d="m51.5 81.7c1.6 3.3 2.9 7.9 3.6 9.7"/>
  <path class="cls-8" d="m58.4 76.6c1.2 2.8 7.5 4 9.1 7.8"/>
  <path class="cls-9" d="m125.1 21.1c2 6.3 8 13.9 8.6 12.3-0.8-3.9-7.3-12.3-8.6-12.3z"/>
  <path class="cls-7" d="m122.6 47c-2.2 0.4-3 3.4-1.2 6.1 1.7 2.6 5.2 6.3 5.8 5.6 1.2-1.3-0.6-12-4.6-11.7z"/>
  <path class="cls-7" d="m119.7 64.1c-3.8 2-1.6 7.5 2.2 9.5 3.3 1.8 3.7 1.4 3.7 0 0-4.6-2.7-10.9-5.9-9.5z"/>
  <path class="cls-7" d="m112.4 70.6c-3.3 0.5-3 5.5 2.2 8.8 2.4 1.5 3.6 1.7 3.6 1 0.5-3.3-2.6-10-5.8-9.8z"/>
  <path class="cls-9" d="m79.2 51.5c-0.3 1.1-0.2 2.6 2.4 2.1s6.4-4.5 6.3-5c-0.2-0.5-5.7 0.8-8.7 2.9z"/>
  <path class="cls-6" d="m28.1 31.1c-1.6 1-3.4 3.1-5.5 4.4-4 2.6-4.9 2.6-6.2 7.4-3 10.5-7 15.5-7.2 21.1 0 4.1 0.8 9.1 1.3 16.4 0.6 8.6 1.9 18.7 17.6 23.3"/>
  <path class="cls-2" d="m12.6 93.6c0.6 4.5-3.1 12.5-9.2 24.8l-1.2 2.5 0.2-0.3-0.2 0.3c-0.3 0.5-0.3 2.2 4.2 7.2 8.2 7.5 18.5 10 27.7 10.6 2.5 0 3.5-0.1 5.4-0.6 0.6 0 3.1-9.4 5.1-14.5 1.5-4.2 5.1-10 7.3-11.9 5.3-4 11-9.1 14.2-14.1 2.3-3.5 4-7.2 5.5-9.2s3.3-4.7 4.8-8.4c0.5-1.4 4-4.4 10.5-10.9"/>
  <path class="cls-10" d="m27.6 31.1c1.8-2 4.8-7.1 5.8-7.5 3.3-1 6.5 1.5 6.5 6.3s-1 7.5-4.8 12.5c-2.5 3.2-5 4.2-5 4.2-3.7 0.3-5.6-1.5-5.7-1.2 1.7 1.6 3.7 1.5 5.5 1.2 0.2 2.1-1.8 7.4-2.8 10-0.5 1.5 0.3 4.5 0.3 4.5"/>
  <path class="cls-11" d="m21.2 58.4c2.2 0 5.5-1.5 5.9-1.9"/>
  <path class="cls-12" d="m24.7 62.4c-1.7 1.7-6 2.8-8 5.2"/>
  <path class="cls-13" d="m35.6 41.6c-4.2 7.8-7.2 13.4-5 17.4 3.3 3.7 7 2.4 7.8 1.6"/>
  <path class="cls-3" d="m39.9 31.5c3.5-2.9 6.7-3.9 9.5-2.4 3.5 1.8 5.1 3.1 4.2 8.5"/>
  <path class="cls-3" d="m53.4 37.6c-1.3 0.8-3 4.1-6.8 11-2 3.8-11 13.5-11.5 18.5-0.5 6.3 5.6 8.5 8.1 7l2.2-1"/>
  <path class="cls-3" d="m64.6 45.9c-1.7 1.5-9.2 12.5-12.9 18.2l-6.3 8.5c-1.2 2-1.5 6.3 2.5 7.8 5 2.2 7.7-1.3 10-3.5 2.7-4 9.5-10.3 12.2-16.3"/>
  <path class="cls-3" d="m53.4 37.6c1.3-0.7 3.8-1.6 5.7-1 4.3 1.5 6.5 3.8 5.5 9.3 3.3-1.5 9.3 0.2 9.1 7.7"/>
  <path class="cls-14" d="m71.9 66.4c-0.8-6.8 0.5-10.8 2-12 1.5-1.5 4.3-2.5 5.7-2.7"/>
  <path class="cls-14" d="m75.1 62.1c1.4 0 4.8-1 5.8-1.2 5.2-2.8 7.1-6 5.5-10.3"/>
  <path class="cls-14" d="m74.9 65.6c-1.2 4 1.8 7.1 6 6.1 3.1-0.3 6.8-3.6 7.8-4.8 2.7-3.8 1-9-2.6-10.4"/>
  <path class="cls-3" d="m77.6 62.1c-1 1.3-2.4 2.1-2.9 3.8"/>
  <path class="cls-8" d="m72.4 69.1c0.3 1.5 2.8 4.3 3.2 4.5"/>
  <path class="cls-14" d="m72.1 66.1c0.8-0.5 2-0.5 2.5-0.5"/>
  <path class="cls-14" d="m88.1 67.4c1.9 1.5 3 0.3 3.1-0.3 0-4-2-10.7-0.2-15.2 2.4-3.5 5.1-5.3 7.9-3.8 4.1 2.9 9.5 10.9 15.7 18.5 3.1 4.3 4.5 5.8 7.3 6.5"/>
  <path class="cls-14" d="m108.6 39.4c-0.5-6 2.5-9 7-9.1 3.1-0.2 6 2.7 7.8 5.1"/>
  <path class="cls-14" d="m98.6 47.9c-0.2-6 4.8-9.5 8.6-8.8l1.8 0.3c3.1 2 4.9 6.2 8.4 10.6 6.5 8.4 9.1 16.4 7.2 25-0.9 4.6-2 10.9-0.2 17.6"/>
  <path class="cls-14" d="m125.8 25.6c-1.8 1-3.2 4.3-2.7 9.8 0.8 5.5 5.9 12 7 12 1.6 0 3.8-0.5 3.6-0.4-1.3-1.6-7.8-7-8.3-15.1 0-2.8 0.7-5.8 1.2-6"/>
  <path class="cls-14" d="m133.7 33.4c4 5.5 7.9 7.2 8.9 10.6 3.4 14.7 5.5 16.9 5.5 23.6 0 3.3-0.4 6.5-0.1 11 0.1 9.8-0.6 15.1-0.6 17.5 0 6.8 8.5 21.6 10.5 26.5 1.8 1.3-7.3 12-19.7 14.8-4 1.2-14.8 2.6-16 0.3-0.8-1.8-5.5-17.8-11.2-23.6-1.9-2.2-4.6-3.5-7.3-6.7-6.8-9-17.1-25.3-23.3-32"/>
  <path class="cls-14" d="m124.9 21.1c-0.3 1.5 4.7 12.8 8.2 12.6"/>
  <path class="cls-6" d="m132.2 59.6c0 1.8-1.1 2.5-2.7 4.3l0.9-5.8"/>
  <path class="cls-6" d="m130.1 47.6c1.3 3.3 0.8 10.5 0.3 10.5"/>
  <path class="cls-14" d="m125.1 39.9c1.5 3.8 5.3 12.3 5.3 18.2l-3 2.8"/>
  <path class="cls-6" d="m94 60.4c1.1 2.2 6.4 7 8.6 8.6 3.3 3.4 6.5 9.4 11.1 10"/>
  <path class="cls-6" d="m93.6 68.6c2 0 5.3-1.2 6-1.7"/>
  <path class="cls-6" d="m86.6 76.4 3.4-4.8"/>
  <path class="cls-6" d="m95.6 82.7 9.9-6.2"/>
  <path class="cls-6" d="m116.9 113.9c3 0.7 8.7-1.5 10.3-4.9"/>
  <path class="cls-6" d="m135.1 103.9c2.5 0 7-1.7 8.3-3.7"/>
  <path class="cls-8" d="m67.4 67.6c1.8 0.3 3.2-0.7 3.7-1.1"/>
  <path class="cls-6" d="m31.5 31c-1.8 2.1-3.1 2.6-3.9 0.7"/>
  <path class="cls-6" d="m33.9 24c0 1.1 0.3 2.6 0 3.7-0.3 0.7-1 1.7-2.4 3.3"/>
  <path class="cls-3" d="m19 39.1c0 1.3 0.6 2 1 2.3"/>
  <path class="cls-3" d="m17.6 40.6 1.1 1.6"/>
  <path class="cls-6" d="m33.4 52.4c2-2.7 5.2-1.8 6.2 1 0.3 1.2-1 4.7-2 6.5-2.4 1.1-6.1-1-6.2-3.4 0-1.1 0.7-2.5 2-4.1z"/>
  <path class="cls-6" d="m36.9 67.6c0.2-1 3-3.9 3.8-3.9 2.5-0.8 4.7 0.9 4.9 2.9 0 1.8-1.5 4.3-2.2 5.8-3.3 1.5-7-2.4-6.5-4.8z"/>
  <path class="cls-6" d="m46.4 74.6c0.5-1 2.8-3.5 4-3.6 1.7-0.6 4.5 0.7 4.5 3.1 0 1.5-2.2 4.6-2.8 5-2.7-0.1-6-2.2-5.7-4.5z"/>
  <path class="cls-8" d="m40.1 43.4c1.3 0.2 3.5 1.6 4 2.3"/>
  <path class="cls-8" d="m46.7 30.5c1.2 0.1 3.7 1.6 3.5 2.4"/>
  <path class="cls-8" d="m57.1 38.9c1.6 0 4.3 1.8 4.4 3"/>
  <path class="cls-8" d="m67.6 47.1c1.3 0 3.8 2 3.8 3.3"/>
  <path class="cls-8" d="m45.6 56.6c1 0 3.5 1.8 4.8 2.9"/>
  <path class="cls-8" d="m45.6 57.9c0.3 1.1 3 2.7 4.3 2.7"/>
  <path class="cls-8" d="m56.4 64.2c1 0.2 3.3 2.2 3.6 2.5"/>
  <path class="cls-6" d="m76.5 66.6c0-1.2 2.7-2.7 3.9-2.9 2-0.3 2.7 1.9 2 3.4-0.3 0.8-2 2.8-2.7 2.8l-3.2-3.3z"/>
  <path class="cls-8" d="m85.6 59.4c1 0.5 2 2.7 1.8 3.2"/>
  <path class="cls-6" d="m79.4 51.6c-0.3 1.8 0.7 2.5 3 1.8 2.2-0.7 6-4.5 5.7-4.8-0.4-0.5-5 0-8.7 3z"/>
  <path class="cls-8" d="m116.5 42.6 2.9-1.5"/>
  <path class="cls-8" d="m113.7 59.5 3-1.8"/>
  <path class="cls-8" d="m105.6 66.5 3.1-2.3"/>
  <path class="cls-6" d="m121.4 53.1c-1.3-2.5-1.8-5.5 1.2-6.2 2.6-0.3 5.3 4.5 4.8 11.5-0.3 1.7-4.8-2.8-6-5.3z"/>
  <path class="cls-6" d="m117.7 66.7c0.7-3 3.7-4.6 5.7-1.1 1.7 2 2.7 9 1.7 9.4-2 0.4-7.4-3.6-7.4-8.3z"/>
  <path class="cls-6" d="m110.2 72.9c0.2-3.5 4.2-4.5 7.2 2.1 0.7 2 1.3 4.9 0.8 5.9-0.6 0-7.8-2.2-8-8z"/>
  <path class="cls-5" d="m122.9 47.9c1 2 4.3 8.7 3.6 9-0.6 0.2-4.1-6.5-3.6-9z"/>
  <path class="cls-5" d="m120.4 65.1c1-0.4 4.5 4.9 4.2 8.5-1.2-2.7-4.2-7.1-4.2-8.5z"/>
  <path class="cls-5" d="m112.4 71.7c1.3-0.3 5.5 5.4 5 7.7-1.3-2.3-4.3-6.5-5-7.7z"/>
  <path class="cls-9" d="m79.6 51.9 6.8-2.5c-0.8 1.2-2.8 2.8-4.8 3.2-2.5 0.5-2-0.7-2-0.7z"/>
</svg>