<svg xmlns="http://www.w3.org/2000/svg" viewBox="0 0 180 253">
<!-- SVG created with Arrow, by QuiverAI (https://quiver.ai) -->
  <style type="text/css">.cls-0 {fill:#F9F5E8;}
.cls-1 {fill:#889196;}
.cls-2 {fill:#EFE6D2;}
.cls-3 {fill:#848484;}
.cls-4 {fill:#A5A5A4;}
.cls-5 {fill:#787878;}
.cls-6 {fill:#D6D6D6;}
.cls-7 {fill:#808080;}
.cls-8 {fill:#C1C1C1;}</style>
  <rect class="cls-0" width="180" height="253"/>
  <rect class="cls-1" x="4.4" y="21.8" width="175" height="229.6"/>
  <rect class="cls-2" x="1.4" y="16.3" width="172.2" height="229.3"/>
  <path class="cls-3" d="m137.6 59.8c-1.5 0.8-6.9 2.9-11.2-1.1l-1.5-2-10.8-32.1 1.1-0.6 9.6 24.2 2.5 7.4c1.2 2.2 4.2 3.9 7.7 2.5 3-1.2 4.6-4.4 3.3-7.5l-13.6-34.3-4.8-8c-1.3-2.8-4.8-4.8-8.2-3.4-3.7 1.5-5.2 5.1-3.8 8.5l1 2.9h-2.1l-1.4-3c-1.4-4 0.5-9 4.7-10.6 4.6-1.9 9.5 0 11.4 4.3l16.4 42.2c1.9 4.3 0.2 8.7-0.3 10.6z"/>
  <path class="cls-3" d="m126.9 12.6-1.5 1 1.3 2.8 0.4-0.1-0.2 0.1 0.4-0.1h-0.1-0.3 0.1-0.1 0.5-0.1 1.2l-1.6-3.7z"/>
  <path class="cls-4" d="m136.2 58.9c-3.4 1.5-8.7 1.5-10.9-3.2l-15.4-31.5 2-0.8 12 31.3c1.2 2.8 4.6 4.4 7.7 3.3 3.2-1.1 5.1-4.4 3.8-7.6l-13.8-35.5-2.4-6.1c-1.4-3.3-5-5.1-8.4-3.8s-5 5-3.7 8.3l1.1 3h-2l-1-2.5c-1.6-4.3 0.4-9.2 4.7-10.8 4.3-1.7 9.1 0.3 10.8 4.5l16.2 41.1c2 4.6 2.5 8.8-0.7 10.3z"/>
  <path class="cls-5" d="m109.9 24.2"/>
  <path class="cls-6" d="m131.3 59.5c-2.7 0-5.4-1.4-6.6-4.1l-14.2-31 1.1-0.5 12.3 31.1c1.3 2.9 4.6 4.7 8.2 3.6 3.7-1 5.3-4.8 4-8l-16.8-41.9c-1.2-3.1-4.9-5.2-8.4-4-3.6 1.3-5.5 4.9-4.1 8.5l1 3.1h-1.1l-1.1-2.4c-1.6-4.4 0.4-9.1 4.5-10.6 4.2-1.5 8.7 0.4 10.3 4.4l16.5 40.9c2.7 6.4-0.5 10.2-4.4 10.8-0.4 0.1-0.8 0.1-1.2 0.1z"/>
  <path class="cls-7" d="m123.6 12.9 2.2 3.4h1.2l-2.3-3.9z"/>
  <path class="cls-8" d="m123.6 13.1 2.1 3.2h0.7l-2.2-4.2z"/>
  <path class="cls-4" d="m123.8 12.7 1.9-0.7 1.4 4.3h-1.7z"/>
  <path class="cls-5" d="m125.7 12.9 1.3 3.4h0.8l-1.6-3.7z"/>
</svg>