<svg xmlns="http://www.w3.org/2000/svg" viewBox="0 0 120 122.5">
<!-- SVG created with Arrow, by QuiverAI (https://quiver.ai) -->
  <style type="text/css">.cls-0 {fill:#F8F4EA;}
.cls-1 {fill:#FCF7EC;}
.cls-2 {fill:none;stroke:#FFFFFF;stroke-width:1.3;stroke-linecap:round;stroke-linejoin:round;stroke-miterlimit:10;}
.cls-3 {fill:#5b7a3a;}
.cls-4 {fill:none;stroke:#858D7B;stroke-width:0.5;stroke-linecap:round;stroke-linejoin:round;stroke-miterlimit:10;}
.cls-5 {fill:none;stroke:#A1A896;stroke-width:0.75;stroke-linecap:round;stroke-linejoin:round;stroke-miterlimit:10;}
.cls-6 {fill:#8a9a5b;}
.cls-7 {fill:none;stroke:#FFFFFF;stroke-width:1.5;stroke-miterlimit:10;}
.cls-8 {fill:#5b7a3a;}</style>
  <rect class="cls-0" width="119.8" height="122.5"/>
  <circle class="cls-1" cx="59.8" cy="61.2" r="46.3"/>
  <path class="cls-2" d="m60.4 8.4c-8.9-0.2-16.9 2.2-23.9 5.6-8.5 4.2-14.7 10.5-18.4 15.4-2.9 4.1-6.2 9.9-7.6 14.6-1.5 4.8-2.6 10.6-2.4 16 0.1 4.1 0.1 6.6 0.9 9.8 0.8 5.7 3.2 11.1 6.6 17.2 5.4 9.6 17.4 19.5 27.6 23.3 5 1.9 10.4 3.2 17.4 3.4"/>
  <path class="cls-3" d="m60.4 7.7c-8.9-0.1-16.9 2.4-23.9 5.8-4.4 2.2-8.5 5.1-11.9 8.3-4.1 3.8-7.3 7.6-10 12.2-2.5 4.3-4.7 8.9-5.7 14.9-0.9 4-1.3 7.8-1 12.1 0 3.1 0.1 5.6 0.8 8.4 0.8 6.1 3.2 11.6 6.5 17.3 5.4 9.6 16.4 19.8 28 24 5 1.9 10.4 3.5 17.5 3.8 0.7 0.3 0.9-0.1 1.4-0.1 8.5-0.4 16.3-2 22.8-5.4s11.9-8 16-12.7c3.6-4.4 6-8.9 8.1-13.9 2.4-5.8 4.1-12.3 4-19.9 0.1-3.1-0.2-5.9-0.8-8.9-0.4-4.2-1.7-8.1-3.1-12.2-1.7-4.5-4.3-8-6.3-11.5-2.7-4-5.9-7.1-9.3-10.1-4.9-4.9-14.4-9.9-23.4-11.3-2.3-0.6-5-0.6-8-0.6l-1.7-0.2zm19.2 5.9c8 3 14.9 8.4 19.6 13.9 6.2 7 10.3 16.5 11.5 26.4 1.1 9.2-0.5 17.5-2.8 24.6-4.4 10.9-12 20.9-23.8 27.5-6.3 3.8-15 6.8-24 6.8-11.2 0-20.1-3.7-26.7-8-6.5-4.3-11.2-9.4-15.6-15.8-3.8-6-6.8-12.5-7.9-21.6-0.9-3.5-0.4-8-0.3-11.8 0.9-5.5 2.3-10.7 4.6-16.6 2.4-4.9 5.4-9.4 9.3-13.4 5.4-5.1 11.1-9 16.5-11.2 5.6-2.5 12.4-4.4 19.9-4.8 7.3-0.1 14 1.4 19.7 4z"/>
  <path class="cls-4" d="m11.5 56.5c1.3-10.6 5.4-19.9 10.7-26.4 5.7-6.7 14.6-13 19.7-15.2 4.6-1.5 10-3.5 17.7-3.5 8.4-0.2 15.8 1.6 21.3 3.8 4.3 1.8 10.3 5.9 14 9.2 7.9 7.5 14.5 18.1 14.5 33.6"/>
  <path class="cls-5" d="m54.2 110.7c-8.6-0.9-18.4-5.7-23.7-9.8-3.5-2.3-6-5.7-8.6-8.7-5.1-6.2-9.4-14.8-10.5-26.7-0.8-12.4 3-23.9 7-30.1 3.5-5.2 7.2-9.9 12.6-13.6 2.5-1.8 6.1-4.2 8.9-5.4 4.2-2 10.5-3.5 16.2-3.9 6.7-0.3 13.3 0.4 18.1 1.9"/>
  <path class="cls-5" d="m55.5 110.9c9 0.9 18.5-1 24.1-3.5 3.3-1.4 8.5-4.2 11.6-6.4 3.4-2.5 6.2-5.9 8.7-9 4.3-5.6 8-13.6 9-23.9 1-10.6-1.1-20.6-4.1-27.6"/>
  <path class="cls-3" d="m22.1 67.8-1.1 1.6-1.5 0.2 2.5 2.3 2.6-2.4-1.4-0.4-1.1-1.3z"/>
  <path class="cls-3" d="m98.5 67.6-0.9 1.5-1.5 0.5 2.3 2.9 2.7-2.7-1.5-0.6-1.1-1.6z"/>
  <path class="cls-4" d="m11.1 58 0.4 0.5-0.3 0.6"/>
  <path class="cls-4" d="m11.1 60.4 0.4 0.2-0.1 0.4"/>
  <path class="cls-4" d="m10.9 62.2 0.5 0.4v0.6"/>
  <path class="cls-4" d="m11.1 65.4 0.5 0.2v0.9"/>
  <path class="cls-4" d="m11.4 67.9 0.6 0.5v0.8"/>
  <path class="cls-4" d="m11.8 69.9 0.4 0.3 0.2 1.2"/>
  <path class="cls-6" d="m17.6 52.6 1.5-6 2.3 0.9-0.4 1.4h-1l-0.4 1.7 2.3 0.4 0.5-2.9 2.2-1v1.5l-1.1 1.8 1.4 1.7 1.3 0.4 0.8-1.5 0.5 1.6-1 2s-3-1-4.5-1.4c-1.4-0.3-4.4-0.6-4.4-0.6z"/>
  <path class="cls-3" d="m30 39.8-7.6-0.6-0.6 0.9 3.8 5 2.3 3.3 1.2-1.3v-0.7l-2.1-1.5 2.1-2.9 0.9 1.6 2.2-2.2v-1.3l-1.7 0.4-0.5-0.7zm-4.4 3.8-1.6-2.2 3.5 0.1-1.9 2.1z"/>
  <path class="cls-3" d="m32.9 31.8 0.3-1.2c-0.7-1.1-2.2-1.5-4.6 0.8-2.4 2.6 0.3 5.5 1 6.2 1.8 1.4 4.3 1 6-0.5 2-1.5 0.4-4.2 0.4-4.2l-1.4 0.1 0.5 2c-2.5 3.1-4.7 0.4-5.7-1.5-0.4-1 1.6-3.4 3.5-1.7z"/>
  <path class="cls-3" d="m33.5 26.6 5.6-3.7 1.8 1.6-0.8 1.1-1.5-0.7-1 0.7 3.5 4.5 2.1 0.4-0.3 0.6-3.5 2.1-0.5-0.3 0.7-1.8-3.1-4.7-1.1 0.7-0.3 1.9-1.6-2.4z"/>
  <path class="cls-3" d="m54.6 20.5h1.5c0.5-1.6-1-3.6-3.9-2.6-3.7 1-3.3 5.2-1.7 7.5 1.6 2.2 6.5 2 6.5-1.8l-1.5-0.4c-0.4 2.9-3.3 2.7-4.1 0.2-1.8-3.9 2.7-5.8 3.2-2.9z"/>
  <path class="cls-3" d="m58.6 17.2 3 0.2-0.5 3.1 3.3 0.4-0.3-3.4h2.8l-0.8 7.5 0.8 0.6-0.5 0.6-3-0.3v-0.8l0.7-0.2 0.3-2.7-3.4-0.1-0.1 2.3 1 1-0.4 0.6-3.3-0.1v-0.9l1-0.5 0.4-5.6-1-0.9v-0.8z"/>
  <path class="cls-3" d="m70.7 18.5-0.1 0.9 0.9 1.1-2.4 5.1-1.1 0.4 0.4 0.6 5.2 2.3 1.5-1.3-0.5-1.2-1.2 0.8-2.5-1.6 1.1-2 2.5 1.5 0.6-1.2-2.2-1.5 0.3-1.4h1.7l1 1.4 1-0.2v-1.7l-6.2-2z"/>
  <path class="cls-3" d="m83.6 27.5 1.6 0.4c1.7-2.3-0.6-4.4-3.7-4.5-3.1 0.5-5.9 5.7-3.6 7.6 3.2 2.9 5.7 1.2 5.3-0.4l-0.8-1c-1.2 2-4 0.8-3.2-1.6 1.7-4.6 5.3-3.1 4.7-1.5l-0.3 1z"/>
  <path class="cls-3" d="m88.9 28.1-1 2.3-3.8 3.2h-1.6v0.5l2.1 1.9 1.4-1-0.4-0.5 2-0.9 0.3 1.8-2 1.6 1.7 2 1.9-1.5-0.1-3.4 2.2-0.7 2 0.7 0.3-1-1.3-1.7-1.5 1.1-2.2-0.4 2.5-2.1-1.5-1.9h-1z"/>
  <path class="cls-3" d="m95.9 36.1-5.4 3.5-2.1 0.3 0.2 1.2 0.8 0.5 2.7 5 1.5-1v-0.6l-0.7-0.4-1.3-2.7 1.8-1.5 1.2 3.7 1.6-1.1-1.7-3.1 1.5-1.3 1.9 3.9 1.3-0.5-0.1-2-2.5-3.8-0.7-0.1z"/>
  <path class="cls-3" d="m101.4 46.1-0.8-0.6-3 1.5-5 1.4 1 4.8c1.9 1.3 3.8 1.7 6.3 0.7 3.7-1 2.6-5 1.5-7.8zm-2 5.5c-3.5 1.5-4.9 0.3-5-1.5l5.7-2.2c1 1.2 0.9 3.1-0.7 3.7z"/>
  <path class="cls-8" d="m37.1 91.2 1.1-1.2 5.7 3.4-0.4 2.1-1.3-0.4-0.6-1.6-4 4.4v1.7l-3.1-1.5 0.1-1.2h1.5l3.3-4.5-1.5-0.4-0.8-0.8z"/>
  <path class="cls-8" d="m45 94.4 0.5 4.7-0.4 4.4 1.5 0.4 3-5-0.2 4.5 0.7 1.6 1.3-0.4 3.6-5.2 1.4-1-0.5-1.8-2.4 0.3 0.5 1.2-2.9 4.5 0.8-6.5-2.4-0.5-0.1 1.5-2.8 4 0.6-4.5 0.7-1.1-2.3-1.5-0.6 0.4z"/>
  <path class="cls-8" d="m57.2 97.4 2.4-0.3 1.5 4.1 1.4-2.3-0.6-1.5 2.6-0.4 0.6 1.4-3.1 4.2 0.9 3.6-3.3 0.2v-1.5l0.9-0.9-1-3.1-2.4-3.3 0.1-0.2z"/>
  <path class="cls-8" d="m66.1 97 3-0.6 4.5 4-0.7-3.5-1.3-0.8v-0.7l2.8-1 0.2 1.1-0.6 0.5 2.5 6.6-1.9 0.6-5.2-4.3 1.2 4.3 1.4 0.9-2.9 1.1-0.5-0.7 0.8-1-2-5-1-0.1-0.3-1.4z"/>
  <path class="cls-8" d="m75.9 93.9 0.2-0.4 4.8-2.9 1.5 1.3-0.5 1-1.3-0.3-1.5 1.3 1 1.7 1.5-1.6 1 0.1 0.3 1.8-2.3 0.5 1.5 2 2.3-1 0.1-1.4 1.1-0.1 0.3 2-5 3.1-0.5-2-3.5-4.6-1-0.5z"/>
  <path class="cls-7" d="m48.1 52.9c-5 0.1-10 3.6-10.5 9.5-0.6 9.1 6.4 12 11.3 11.5 4.5 0 9.7-3.3 9.7-10.4-0.2-5.5-3.5-10.6-10.5-10.6zm0.5 19.1c-2.7 0-5.5-2.1-6-8.4 0-6 2.5-9.2 5.6-9.2 3.3 0 5.8 2.5 5.8 8.5 0.1 6.1-2.6 9.1-5.4 9.1z"/>
  <path class="cls-6" d="m48.1 52.6c-5 0.3-10 3.5-10.5 9.5-0.5 9 6.5 12 11.3 11.8 4.5 0 9.7-3.3 10-10 0-5.8-3.8-11.3-10.8-11.3zm0.5 19.4c-2.7 0-5.7-2.1-6.1-8.4 0-6 2.5-9.2 5.6-9.2 3.3 0 5.8 2.5 5.8 8.5 0.2 6-2.4 9.1-5.3 9.1z"/>
  <path class="cls-7" d="m62.4 53.4v1.2l2.2 0.5v16.1l-2.2 0.7 0.1 1.5 8.7 0.1 0.3-1.5-2.5-0.9-0.1-5.7 1.7-1.5 4.3 6.1 1.6 1.5-2.1 0.4v1.3l8.5 0.2 0.2-1.5-1.9-0.8-7.8-10 6.1-6 2.4-0.6-0.3-1.4h-7.2v1.5l2.1 0.5-7.5 7.8v-7.8l2.2-0.5 0.2-1.5-9 0.3z"/>
  <path class="cls-6" d="m62.4 53.1v1.3l2.2 0.7v16.1l-2.1 0.7v1.3l8.7 0.2 0.2-1.5-2.4-0.8v-5.7l1.6-1.5 4.3 6.1 1.6 1.4-2.1 0.5v1.3l8.5 0.2 0.2-1.5-1.9-0.7-7.8-10 6-6.1 2.5-0.6v-1.4h-7.5v1.5l2 0.5-7.5 7.8 0.1-7.8 2.2-0.5 0.2-1.5h-9z"/>
</svg>