<svg xmlns="http://www.w3.org/2000/svg" viewBox="0 0 150 114">
<!-- SVG created with Arrow, by QuiverAI (https://quiver.ai) -->
  <style type="text/css">.cls-0 {fill:#FCF7ED;}
.cls-1 {fill:#011356;}
.cls-2 {fill:none;stroke:#011356;stroke-width:0.7649;stroke-linecap:round;stroke-linejoin:round;stroke-miterlimit:10;}
.cls-3 {fill:none;stroke:#284734;stroke-width:0.7649;stroke-linecap:round;stroke-linejoin:round;stroke-miterlimit:10;}
.cls-4 {fill:#020202;}
.cls-5 {fill:#011356;}
.cls-6 {fill:none;stroke:#284734;stroke-width:0.6646;stroke-linecap:round;stroke-linejoin:round;stroke-miterlimit:10;}</style>
  <rect class="cls-0" width="150" height="114"/>
  <path class="cls-1" d="m141.8 4.4-0.4 0.6c1.9 0.4 3.6 1.3 3.6 3v96.3c0 1.3-0.5 2.6-3 4.1l0.4 0.6c2-0.8 3.4-1.8 3.4-4.6v-94.8c0-2.9-1.8-4.8-4-5.2z"/>
  <path class="cls-1" d="m10.3 4.2-1.9 0.2c-1.4 0-3.2 0.7-3.4 2.5l0.4 0.1c0.4-1.2 1.2-1.8 3.1-1.8l1.8-0.1v-0.9z"/>
  <path class="cls-1" d="m10 108.3c-2.3 0.3-4-0.7-5-3.3l-0.6 0.2c0.8 2.8 2.8 4.2 5.6 3.8v-0.7z"/>
  <path class="cls-2" d="m4.8 8.1c-0.4 0.6-0.6 1.1-0.6 2.1v92.8"/>
  <path class="cls-1" d="m141 4.3c-1.6-0.4-4.3-0.2-7.7-0.2-2.3-0.1-3.6 0.1-5.3-0.1-1.7 0.2-4.1-0.4-5.5 0.1-2.1-0.4-3.5 0.1-5.5-0.1-2.1-0.3-4.2 0.3-6 0-2.6-0.2-4 0.2-4 0.2-1.3-0.5-3.8 0.1-5.6-0.2-1.8-0.1-4.5 0.2-4.5 0.2-0.7-0.3-3.3-0.2-3.9-0.3-1.5 0.3-5.3 0.1-6.2 0.1-3.1-0.2-6.9-0.1-9.4-0.1-2.4 0.1-1.8 0.2-2.4 0.1-2 0-10.1 0.2-11.4-0.1l-3.1 0.2-10.2-0.1c-0.9-0.3-2.8 0-3.4 0.2-3.6-0.2-11.9-0.2-17.1-0.2-3.9-0.2-8.8 0.1-11.9 0-2.3-0.1-6.8-0.2-7.7 0.2l0.2 1.3c2.8 0.2 5.9 0.1 7.2-0.1 2.2 0.3 10.8 0.2 12.2 0.2 1.9-0.1 11.5-0.1 17.2-0.1 1.5 0.3 5.9 0 7 0.1l6-0.1 3 0.1 6.1-0.1h5.9l0.6-0.1 0.4 0.2 5.4-0.1c1.8 0.3 7.6 0 8.6 0.1l7-0.1 0.7-0.2 0.7 0.3h8.1l1.1-0.1 0.6 0.1 4.3-0.1 2.7 0.1 2.2 0.1 2-0.2 0.6 0.1h3l0.6-0.1 0.7 0.2h3l2.8-0.1 9.1 0.1 1.8-0.3v-1.1z"/>
  <path class="cls-1" d="m138.8 108.3-0.4 0.7 3.2-0.1 0.2-0.7-3 0.1z"/>
  <path class="cls-1" d="m138.7 107.5c-1.9 0.2-3-0.2-4.7 0.2-1.9-0.2-4.3-0.1-5.9-0.1l-0.7 0.2-0.4-0.1-3.2 0.1-11.3 0.1c-3-0.3-5.7 0.1-7.9-0.1-3 0.3-6.5-0.1-7.2 0.2-1.7-0.3-5.8-0.1-6.8-0.1l-0.4 0.3-4.8-0.1-1.8 0.2-7.8-0.1-1.7-0.2-1.5 0.3-2.6-0.1-1.3-0.2-1.3 0.2c-2.1 0.2-3.7-0.3-4.9 0-1.8-0.4-4.5 0.1-7-0.2-1.3 0.4-4.3-0.1-5.6 0.1-2.7-0.1-4.4 0.1-6 0.1l-0.5-0.1-0.8 0.1-4.2-0.1c-2.7-0.2-3.1 0.2-4.2 0.1l-1.6-0.2-1.2 0.1-1.5-0.1h-4.3l-0.6 0.1-0.6-0.1-14 0.2 0.1 0.8c3.1 0.2 12.9 0.4 15.1 0.3l14.8 0.1 3-0.1 0.8-0.1 0.9 0.2 6.1-0.1 1.5 0.1h1.4l1.4-0.2 1.9 0.2 15.2-0.1 0.6 0.1 8.7-0.1 3.5-0.2 5.2 0.1 0.5 0.1 6.3 0.1 0.8-0.1 9.9-0.1 14.3-0.1 1-0.2 4 0.1 0.7 0.2 10.3-0.1 0.3-1.6z"/>
  <path class="cls-2" d="m4.6 103.7c0.2-0.4 0.3-0.6 0.3-1.2l0.1-5.8-0.2-2.3 0.2-1.2-0.1-1.3 0.2-2-0.2-0.9 0.2-2.4-0.1-6.6 0.2-1.3-0.3-1.7 0.5-0.6-0.2-2.8 0.1-2.9-0.2-2.5 0.1-1.6v-16.7l0.1-1.7v-7.3l-0.1-0.9 0.1-9.9-0.1-1.1 0.1-0.6-0.1-19.2"/>
  <path class="cls-1" d="m145 39.4 1.4 0.2 0.2 5-0.2 1.4 0.1 2.4-0.1 0.5 0.1 11.3-0.1 0.8 0.1 2.4-0.1 2.5-1.2 0.3-0.2-0.5v-57.3"/>
  <path class="cls-1" d="m145 92.9 1.4 0.1-0.1 11.4-0.9 0.5-0.4-0.5v-11.5z"/>
  <path class="cls-2" d="m142.5 10.8 0.3 2.8-0.1 3-0.3 2 0.3 1-0.1 9.3-0.3 0.5 0.3 1.2-0.2 2 0.2 8-0.2 1 0.2 3.6-0.2 0.8 0.1 9-0.2 1.6 0.3 1.8-0.2 1.6 0.1 4.4-0.1 1.6 0.2 1.6-0.2 2.4 0.1 2.4-0.2 2.6 0.2 2.9-0.2 2.2 0.2 2.5-0.1 6.6 0.1 0.9-0.2 3.1 0.2 1.8-0.1 6.2-0.4 1.4"/>
  <path class="cls-2" d="m7.9 10.1-0.2 6 0.3 1.3-0.2 1.6 0.1 65.4-0.1 10.5 0.2 2.3-0.1 5.2"/>
  <path class="cls-2" d="m9.7 8.4c0.7-0.2 1.3-0.4 1.9-0.4l35.3-0.2 9.6 0.2 11.1-0.1 2 0.2 2.5-0.2 6.3 0.2 3.2-0.2h1l1 0.2 6.8-0.2h12.3l0.9-0.1 9.8 0.2 5-0.1 1-0.1 1.2 0.2 8.4-0.1 1.2-0.1 1.4 0.1h7.1l1.8 0.3 1.1 0.7 0.6 1.2"/>
  <path class="cls-2" d="m10.1 105 2.6 0.2 13.7 0.2 2-0.2 1.2 0.2 3.8-0.2 1 0.2h6.2l1.3-0.2 1.1 0.2h16.4l1.2-0.2 1 0.2 1.5-0.2 1.3 0.2 2.2-0.2 1 0.2 2-0.2 1 0.2h2.5l1.5-0.2 1.5 0.2h10l1.5-0.2 1.4 0.2 2.6-0.2 1.4 0.2h8.6l1.5-0.2 1.5 0.2 2-0.2 1 0.2 12-0.2 1.5 0.2 1-0.2 5.5 0.2 1.5-0.2 1 0.2 1.5-0.2 1.5 0.2 5-0.2 2.5-0.2"/>
  <path class="cls-5" d="m40.1 21.5h4.4c2.4 0 4.6 1.5 4.7 5 0 3.1-1.4 5.6-4.9 5.6h-4.4v-1.2h1.4v-8.2h-1.2v-1.2zm2.9 9.2h1.2c2 0 3.3-1.2 3.3-4.1 0-3-1.4-3.9-3.1-3.9h-1.4v8z"/>
  <path class="cls-5" d="m55.4 24c2.5 0 4.1 1.7 4.1 4s-1.4 4.1-3.9 4.1-4.2-1.7-4.2-4.1c0-2.3 1.6-4 4-4zm0 6.8c1.7 0 2.5-1.3 2.5-2.8 0-1.4-0.8-2.9-2.4-2.9s-2.5 1.3-2.5 2.8 0.7 2.9 2.4 2.9z"/>
  <path class="cls-5" d="m67.6 24.2h1.2v2.3h-1.2c-0.2-0.6-0.6-1.5-2.1-1.5-1 0-1.6 0.4-1.6 1s0.5 1 2 1.2c1.7 0.2 3.4 0.5 3.4 2.3 0 1.7-1.2 2.6-2.9 2.6-1.2 0-1.9-0.3-2.4-0.7v0.5h-1.5v-2.5h1.5c0.2 0.5 0.7 1.6 2.2 1.6 0.9 0 1.7-0.4 1.7-1.1 0-0.8-0.5-1.1-2.3-1.3-1.4-0.1-3.1-0.6-3.1-2.4 0-1.3 1.4-2.2 2.9-2.2 1 0 1.7 0.2 2.2 0.6v-0.4z"/>
  <path class="cls-5" d="m77.9 24.2h1.2v2.3h-1.2c-0.2-0.6-0.7-1.5-2.2-1.5-1 0-1.3 0.5-1.3 1 0 0.6 0.5 1 2 1.2 1.7 0.2 3.1 0.7 3.1 2.4 0 1.5-1.4 2.6-2.9 2.6-1.2 0-1.9-0.4-2.4-0.8v0.5h-1.3v-2.5h1.3c0.2 0.5 0.8 1.6 2.3 1.6 0.9 0 1.6-0.5 1.6-1.1 0-0.8-0.5-1.2-2.2-1.3-1.4-0.1-3-0.7-3-2.5 0-1.1 1.3-2.1 2.8-2.1 1 0 1.8 0.2 2.2 0.6v-0.4z"/>
  <path class="cls-5" d="m82.7 30.8h3.2v-5.4h-2.7v-1.2h4.3v6.6h3v1.4h-7.8v-1.4zm5.2-9.4v1.7h-2.2v-1.6l2.2-0.1z"/>
  <path class="cls-5" d="m94.7 28.4c0 1.5 1.2 2.4 2.7 2.4 0.8 0 1.7-0.4 2.1-1.3h1.2c-0.2 1.9-2.1 2.7-3.5 2.6-2.2 0-4-1.5-4-4.2 0-2.3 1.7-3.9 3.8-3.9s3.7 1.5 3.9 3.6v0.8h-6.2zm4.7-1.2c-0.2-1.1-0.9-2.1-2.4-2.1-1.1 0-2.1 0.8-2.3 2.1h4.7z"/>
  <path class="cls-5" d="m106.4 25.4h-2.8v-1.4h2.8v1.9c0.7-1 1.7-1.9 3.1-1.9 1 0 2.2 0.9 2.2 1.9 0 0.6-0.3 1-1 1-0.5 0-0.8-0.4-0.8-0.9 0-0.4 0.1-0.5 0.5-0.6-1.3-0.4-3 1-3.9 1.6v3.6h2.6v1.6h-5.7v-1.4h1.7l0.3-5.4z"/>
  <path class="cls-4" d="m22.1 50.1h3.1l3.8 8v-6.7h-1.4v-1.4h3.8v1.4h-1v9.7h-1.5l-4.3-8.7v7.5h1.6v1.3h-4.3v-1l1.3-0.6v-8.1l-1.1-0.5v-0.9z"/>
  <path class="cls-4" d="m37.9 53.1c2.5 0 4.1 1.6 4.1 4.1s-1.4 4.3-4 4.3c-2.4 0-4.3-1.6-4.3-4.3 0-2.5 1.7-4.1 4.2-4.1zm0 6.8c1.6 0 2.3-1.4 2.3-2.8 0-1.5-0.6-2.9-2.3-2.9s-2.4 1.4-2.4 2.8c0 1.5 0.7 2.9 2.4 2.9z"/>
  <path class="cls-4" d="m48.4 58.2c0.8 0 1.7 0.8 1.7 1.7 0 0.8-0.7 1.5-1.7 1.5-0.8 0-1.5-0.8-1.5-1.5 0-0.9 0.7-1.7 1.5-1.7z"/>
  <path class="cls-4" d="m65.7 60h2.9v-8.5h-2.5v-1.1l4.3-0.4v10h3.1v1.2h-7.8v-1.2z"/>
  <path class="cls-4" d="m76.1 61.1c0-1.6 1.8-3.1 3.4-4.2 1.1-1 2.1-1.8 2.1-3 0-1.3-0.5-2.5-1.9-2.5-1 0-1.8 0.5-2 1.1 0.2 0.1 0.3 0.4 0.3 0.6 0 0.5-0.4 0.5-0.9 0.5-0.6 0-0.9-0.4-0.9-0.9 0-1.1 1.2-2.7 3.5-2.7 2.4 0 3.7 1.1 3.7 3.4 0 2-1.9 3.2-3.5 4.3-0.7 0.5-1.5 1.2-1.8 1.9h3.9l0.5-1h1.1l-0.2 2.5h-7.3z"/>
  <path class="cls-4" d="m87.5 55.7h6.9v1.5h-6.9v-1.5z"/>
  <path class="cls-4" d="m97.9 52.6c0.5-2 0.8-2.6 2-2.6l4.5 0.2 1.5-0.2 0.2 0.1 0.1 1.4c-2 3.2-3.2 4.7-3.7 10.1l-1.5-0.2c-0.3-1.8 1.1-5.8 3.5-9.5l-4.5-0.3-0.8 1.6-1.2-0.1-0.1-0.5z"/>
  <path class="cls-4" d="m109.6 55.9h7v1.6h-7v-1.6z"/>
  <path class="cls-4" d="m118.7 60.1 1.4-0.1 3.1-9.9h1.9l2.8 9.9 1.3 0.5v0.7h-4.1v-0.8l1.1-0.4-0.5-2h-3.5l-0.6 2 1.4 0.4v0.8h-4.3v-1.1zm6.7-3.2-1.3-4.7-1.4 4.7h2.7z"/>
  <path class="cls-5" d="m33.8 79.6h4.8c2 0 3.8 0.8 3.8 3.5 0 1.1-0.9 2.4-2.2 3l1.9 3.8 1.4 0.7v1.1h-2.5l-2.1-5.1h-2v4l1.2 0.5v0.9h-4.5v-1l1.8-0.4v-9.4l-1.6-0.6v-1zm3.1 1.5v4.3h1.3c1.3 0 2.5-0.9 2.5-2 0-1.5-1.1-2.3-2.3-2.3h-1.5z"/>
  <path class="cls-5" d="m46.9 88c0 1.6 1.3 2.7 2.7 2.7 1 0 1.6-0.3 2.1-1.1h1.5c-0.2 1.8-2.2 2.6-3.6 2.5-2.4 0-4.4-1.4-4.4-4.2 0-2.4 1.4-4.7 4.2-4.7 2.1 0 4 1.8 4 3.9l-0.3 1-6.2-0.1zm4.7-1.1c0-1-1-2.3-2.2-2.3-1.4 0-2.3 1-2.5 2.3h4.7z"/>
  <path class="cls-5" d="m55.4 83.4h4v1.2l-1.2 0.3 1.8 5 2-4.9-1.1-0.9v-0.7h3.7v1.2l-1.2 0.4-2.8 6.9h-1.4l-2.6-6.9-1.2-0.6v-1z"/>
  <path class="cls-5" d="m66.7 90.6h3.3v-6h-3.3v-1.2h4.7v7.2h3.1v1.3h-7.8v-1.3zm4.7-11v2.3h-2v-2.3h2z"/>
  <path class="cls-5" d="m78.2 88c0 1.6 1.2 2.6 2.8 2.6 1 0 1.6-0.2 2.1-1h1.4c-0.3 1.8-2.1 2.5-3.8 2.4-2.2 0-4-1.5-4-4.3 0-2.3 1.4-4.5 4-4.5 2.3 0 3.8 1.7 3.9 3.7l-0.4 1.2-6-0.1zm4.7-1.3c0-1.1-0.9-2.1-2.3-2.1-1.2 0-2.2 0.9-2.4 2.1h4.7z"/>
  <path class="cls-5" d="m86.4 83.4h4.1l-0.1 1-0.9 0.6 0.5 4.4 1.2-3.9h1.2l1.1 3.9 0.5-4.3-1.1-1v-0.7h3.5l-0.2 1-1 0.7-1.1 6.8h-1.4l-1.1-4-1.4 4.1h-1.3l-1.3-6.9-1.2-0.7v-1z"/>
  <path class="cls-5" d="m99.9 88c0.1 1.6 1.2 2.6 2.7 2.6 0.9 0 1.6-0.2 2-1.2h1.5c-0.2 1.8-2 2.8-3.5 2.6-2.4 0-4.4-1.5-4.4-4.3 0-2.2 1.2-4.5 4-4.5 2.4 0 3.9 1.8 3.9 3.7l-0.4 1.2-5.8-0.1zm4.7-1.3c-0.1-1.1-0.9-2.1-2.1-2.1-1.4 0-2.3 0.9-2.4 2.1h4.5z"/>
  <path class="cls-5" d="m116.1 90.4 1 0.3-0.2 1.3-2.3-0.9c-0.5 0.5-1.2 0.9-2.4 0.9-2.1 0-3.7-2.1-3.7-4.4 0-2 1.5-4.2 3.5-4.2 1.2 0 1.9 0.5 2.5 1.1v-3.5l-1.8-0.4 0.2-1h3.1l0.1 10.8zm-1.5-4.2c-0.4-0.6-1.1-1.3-2.4-1.3-1.5 0-2 1.3-2 3 0 1.5 0.7 2.8 1.9 2.8 1.3 0 2.5-1.2 2.5-2.6v-1.9z"/>
  <line class="cls-3" x1="17.2" x2="131.4" y1="41.6" y2="41.5"/>
  <line class="cls-6" x1="16.9" x2="135.9" y1="70.1" y2="70.1"/>
  <line class="cls-3" x1="133.6" x2="134.7" y1="41.5" y2="41.6"/>
  <line class="cls-6" x1="136.5" x2="137.4" y1="70.1" y2="70.1"/>
  <line class="cls-6" x1="14" x2="15" y1="70.1" y2="70.1"/>
</svg>