<svg xmlns="http://www.w3.org/2000/svg" viewBox="0 0 120 122.5">
  <style type="text/css">.cls-0 {fill:#f4ecd8;}
.cls-1 {fill:currentColor;}</style>
  <rect class="cls-0" width="120" height="122.5"/>
  <path class="cls-1" d="m59.1 48.2h1.6c-0.6-11.6-0.4-22.6 6.3-37.2 0.7-1.2 1.1-2.1 1.1-3.1 0-3.3-2.8-6.6-8.1-6.6-4.7 0-8 3.1-8 6.6 0 1.1 0.4 2 0.8 2.8 4.8 8.3 7.2 18.3 6.3 37.5z"/>
  <path class="cls-1" d="m51.9 51.4c-8.2-7.5-15.5-14.1-20.9-26.9-0.7-1.8-1.2-4-1.6-5.2-0.7-1.7-2.3-4-6.3-4-4.2 0-8.7 3.5-8.7 8.4 0 3.1 1.8 5.7 4.5 6.3 4.5 1 13.8 3.9 23.2 12.7l8.7 9.4h1.1v-0.7z"/>
  <path class="cls-1" d="m47.9 59.6c-10.8 0.4-21.9 0.9-33.8-5-2.7-1.3-3.4-2.3-6-2.3-3.6 0.1-6.8 3.1-6.8 8.2 0.1 4.4 3.1 7.7 6.4 8.1 1.6 0.2 2.8-0.1 3.7-0.7 5.9-3.6 14.5-6.5 25.4-6.8 3.4 0 6.9 0 11.1 0.2v-1.7z"/>
  <path class="cls-1" d="m50.9 68.5c-7.4 7.6-14.1 15.6-28.5 21.4-2.7 1-4.5 1-6.2 2.6-1.4 1.3-2.3 3.5-2 6.2s2.2 5.7 5.2 6.9c4 1.6 8.5 0.3 9.7-3.5 0.7-2.2 1-7.2 8.2-16.7 3.9-5.5 9.4-10.3 14.7-15.9l-1.1-1z"/>
  <path class="cls-1" d="m59.1 72.4c0.4 11.5 0.8 24-6.2 38.2-0.8 1.3-1.2 2.5-0.8 4.7 0.6 2.7 3.4 5.8 8 6 4.7 0 7.9-3.2 7.9-6.9 0-1.6-0.4-2.5-1.1-3.8-2.5-4.3-6.5-13.5-6.2-28.2v-10h-1.6z"/>
  <path class="cls-1" d="m67.9 69.4c8.2 7.7 16.5 15.1 22 28.1 1.2 2.9 1 4.9 3.2 7 3.8 3.2 11.6 2 12.9-4.5 0.5-2.5 0.1-4.9-1.6-6.7-1.3-1.3-2.5-1.7-3.8-2-11-2.8-19.1-8.9-26.3-16.4l-5.2-5.9-1.2 0.4z"/>
  <path class="cls-1" d="m72.2 59.6c9.3 0.5 21.7 1 31.9-3.7 3.6-1.5 5-3.4 7.8-3.5 4-0.1 6.8 3.5 6.8 7.5 0 4.5-2.7 8.6-6.6 8.7-1.8 0.1-2.7-0.2-3.7-0.9-4-2.3-8.8-4.6-17.8-6.1-5.8-0.9-11.6-0.5-18.4-0.3v-1.7z"/>
  <path class="cls-1" d="m67.9 51.4 1.2 1.1c7.3-7.5 15-16.4 28.8-21.4 2.5-1 4.1-0.7 5.8-2.2 2.9-2.8 3-8.5-1.3-11.9-3.2-2.6-9.2-3.1-11.5 1.6-1 2.9-1.3 8.7-10.2 19.4-3.3 4.1-8.8 9.1-12.8 13.4z"/>
  <path class="cls-1" d="m60.1 52.3c-4.5 0-8.3 3.3-8.3 8.1 0 4.4 3.5 8.1 8.1 8.2s8.1-3.2 8.1-8c0-4.2-3.2-8.2-7.9-8.3z"/>
</svg>