<svg xmlns="http://www.w3.org/2000/svg" viewBox="0 0 194 59">
<!-- SVG created with Arrow, by QuiverAI (https://quiver.ai) -->
  <style type="text/css">.cls-0 {fill:#F7EEE1;}
.cls-1 {fill:url(#SVGID_1_);}
.cls-2 {fill:none;stroke:#000000;stroke-width:0.3;stroke-miterlimit:10;}</style>
  <rect class="cls-0" width="194" height="58.6"/>
  <linearGradient id="SVGID_1_" x1="15.3" x2="32.54" y1="48.65" y2="4.37" gradientUnits="userSpaceOnUse">
    <stop stop-color="#6A120A" offset="0"/>
    <stop stop-color="#440805" offset=".44"/>
    <stop stop-color="#660C05" offset=".6092"/>
    <stop stop-color="#811106" offset=".8098"/>
    <stop stop-color="#660C05" offset="1"/>
  </linearGradient>
  <path class="cls-1" d="m34.8 4.3c-0.9 0.3-2.6 0.3-3.8 0.3h-22c-1.1 0-2.2 0-3.1-0.3l-1.1 10.4h0.4c1.7-5.9 4.7-9.2 9.7-9.2h2.7v28.5c0 5.9-0.8 7-4.6 7.3v0.5c1.9-0.1 5.2-0.1 7.6-0.1s5.2 0 7 0.1v-0.5c-3.5-0.3-4.3-1.2-4.2-7.3v-28.5h2.3c5.1 0 8.3 2.5 9.9 9.2h0.5l-1.3-10.4z"/>
  <linearGradient id="SVGID_00000047027800633415484760000016353064262149114870_" x1="46.1" x2="67.82" y1="11.1" y2="39.93" gradientUnits="userSpaceOnUse">
    <stop stop-color="#660C05" offset="0"/>
    <stop stop-color="#7C0C05" offset=".3106"/>
    <stop stop-color="#7B0C05" offset=".5053"/>
    <stop stop-color="#740C05" offset=".7006"/>
    <stop stop-color="#570805" offset="1"/>
  </linearGradient>
  <path d="m78.2 4.6v0.5c3.4-0.1 4.9 1.8 4.4 5.3l-6.9 22.2-7.5-21.8c-1.3-4.3-0.5-5.8 2.7-5.7v-0.5h-15l0.1 0.5c2 0 3.2 0.5 4.6 4.2l2.7 7.2-5.6 16.4-8.3-22.1c-1.4-4.3-0.7-5.8 3-5.7v-0.5h-15.4v0.5c2.4 0 3.5 0.7 5.3 5.3l12.5 31.8h0.6l8.5-23.9 8.8 23.9h0.6l10.2-29.9c2-6.1 3.3-7.2 5.3-7.2v-0.5h-10.6z" fill="url(#SVGID_00000047027800633415484760000016353064262149114870_)"/>
  <linearGradient id="SVGID_00000157305787409681962370000017272441991949914467_" x1="91.63" x2="114.9" y1="6.068" y2="37.14" gradientUnits="userSpaceOnUse">
    <stop stop-color="#6A120A" offset="0"/>
    <stop stop-color="#570805" offset=".2477"/>
    <stop stop-color="#6A120A" offset=".5053"/>
    <stop stop-color="#7A120A" offset="1"/>
  </linearGradient>
  <path d="m111.7 4.6v0.5c3.5 0 4.8 1.9 3.5 5.3l-6.6 12.9-7.9-14c-1.4-2.9-0.3-4.3 2.9-4.2v-0.5h-14.3v0.4c1.8 0 2.6 1 4.6 4.1l8.8 16.4v9.9c0 4.4-0.6 5.6-4.2 5.9v0.5l15.2-0.1v-0.4c-3.7-0.2-4.6-0.9-4.6-5.9v-11.3l7.3-13.4c2.6-4.8 4-5.6 5.8-5.6v-0.5h-10.5z" fill="url(#SVGID_00000157305787409681962370000017272441991949914467_)"/>
  <linearGradient id="SVGID_00000147910654752890731920000001305526365080032439_" x1="129.3" x2="153.6" y1="9.28" y2="37.23" gradientUnits="userSpaceOnUse">
    <stop stop-color="#660C05" offset="0"/>
    <stop stop-color="#740C05" offset=".4225"/>
    <stop stop-color="#7A120A" offset=".7279"/>
    <stop stop-color="#8B150A" offset="1"/>
  </linearGradient>
  <path d="m149.7 4.6v0.5c3.2 0 5.1 1.4 5.1 5.9l0.1 20.7-21.1-27.1h-10.3v0.5c2.2 0 3.4 0.8 4.8 3.2v25.7c0 5.5-0.9 7-4.5 7.2v0.5h10.8v-0.5c-3.6-0.1-5-1.3-5.1-7.2v-24.2l25.4 32.4h0.8l0.2-29.2c0-6.5 1.3-7.8 4.8-7.9v-0.5h-11z" fill="url(#SVGID_00000147910654752890731920000001305526365080032439_)"/>
  <linearGradient id="SVGID_00000017516613847196561310000006180242585976538417_" x1="167.4" x2="185.4" y1="4.346" y2="42.82" gradientUnits="userSpaceOnUse">
    <stop stop-color="#440805" offset="0"/>
    <stop stop-color="#780C05" offset=".44"/>
    <stop stop-color="#7A0C05" offset=".7333"/>
    <stop stop-color="#2D0C0A" offset="1"/>
  </linearGradient>
  <path d="m189.7 30.9c-2.1 7.3-6 10-12.6 10h-1.1c-2.4 0-2.4-0.3-2.6-1.1-0.2-0.5-0.3-1.3-0.3-3v-13.4h3.3c4.1 0.1 5.8 2.3 6.1 6h0.5l-0.1-12.6h-0.4c-0.3 4.1-2.3 5.8-6 5.8h-2.9v-17.1h3.8c5 0 8.2 2.5 9.6 8.8h0.5l-1.2-10.2c-0.9 0.3-2.7 0.4-3.7 0.4h-19.8l0.1 0.6c3.3 0 4.2 1.3 4.2 5.6v23.9c-0.1 4.9-0.5 6.4-4.2 6.6v0.5h25.5l1.7-10.8h-0.4z" fill="url(#SVGID_00000017516613847196561310000006180242585976538417_)"/>
  <path d="m98.9 51.8-1.7 0.2 2-1.1-0.5-0.9-2.2 1.6-0.3-2.2h-0.6l-0.2 2.2-2-1.7-0.8 0.4 2 1.7-1.8-0.3h-2.6l-0.1 0.4 2.6 0.2 1.4-0.1-2.1 0.9 0.6 0.3 2.8-1.3-2.1 1.5 0.1 0.3 0.4-0.1 1.8-1.1v1.7h0.5l0.2-1.7 2 1.2 0.7-0.3-1.9-1.4 1.7 0.2h2.6l0.1-0.5z"/>
  <path class="cls-2" d="m103 52h87"/>
  <path class="cls-2" d="m4 52h84.4"/>
</svg>